<svg width="168" height="37" viewBox="0 0 168 37" fill="none" xmlns="http://www.w3.org/2000/svg">
<path d="M48.3026 24.9455C49.6094 24.9455 50.7164 24.7864 51.8804 24.4502C52.0625 24.3977 52.1787 24.2275 52.1598 24.0402L52.0492 22.9277C52.0373 22.8086 51.9785 22.7109 51.8786 22.644C51.7783 22.5772 51.6651 22.5603 51.5497 22.5944C50.6058 22.8744 49.6401 23.0144 48.5161 23.0144C45.4573 23.0144 44.4376 21.9783 44.4376 19.0119C44.4376 16.0451 45.4569 15.0326 48.5161 15.0326C49.6401 15.0326 50.6058 15.1725 51.5497 15.4525C51.6651 15.4867 51.7783 15.4698 51.8786 15.4033C51.9785 15.3364 52.0377 15.2387 52.0492 15.1196L52.1598 14.0071C52.1783 13.8198 52.0625 13.6497 51.8804 13.5971C50.7164 13.261 49.6094 13.1019 48.3026 13.1019C44.0106 13.1019 42.2798 14.7971 42.2798 19.0354C42.2798 23.2738 44.011 24.9455 48.3026 24.9455ZM55.0472 24.6629H56.4014C56.616 24.6629 56.7914 24.4888 56.7914 24.2757V16.3041C58.2614 15.433 59.5416 15.08 61.107 15.08H61.191C61.406 15.08 61.581 14.9058 61.581 14.6927V13.4895C61.581 13.276 61.406 13.1022 61.191 13.1022H61.0834C59.6134 13.1022 58.2854 13.5262 56.5306 14.6093L56.2697 13.3851H55.0472C54.8326 13.3851 54.6573 13.5589 54.6573 13.7724V24.276C54.6573 24.4891 54.8326 24.6633 55.0472 24.6633V24.6629ZM69.0501 24.9455C73.6029 24.9455 75.2864 23.3208 75.2864 19.0354C75.2864 14.7265 73.6029 13.1019 69.0501 13.1019C64.4977 13.1019 62.8142 14.7265 62.8142 19.0354C62.8142 23.3208 64.4977 24.9455 69.0501 24.9455ZM69.0501 23.0383C65.9914 23.0383 64.9716 22.0492 64.9716 19.0354C64.9716 15.9981 65.9914 15.0094 69.0501 15.0094C72.1089 15.0094 73.1286 15.9981 73.1286 19.0354C73.1286 22.0492 72.1089 23.0383 69.0501 23.0383ZM80.7575 24.6629H82.5727C82.7418 24.6629 82.8861 24.5611 82.9412 24.4024L85.8379 16.0925L88.7117 24.4017C88.7668 24.5608 88.9108 24.6633 89.0806 24.6633H90.895C91.0645 24.6633 91.2084 24.5611 91.2639 24.4021L94.9077 13.8984C94.9498 13.7764 94.9317 13.6526 94.8566 13.5475C94.7811 13.4424 94.669 13.3851 94.5391 13.3851H93.1609C92.9907 13.3851 92.8457 13.4884 92.7913 13.6486L89.9641 21.979L87.0671 13.646C87.0119 13.4869 86.868 13.3851 86.6985 13.3851H85.0258C84.8563 13.3851 84.7124 13.4869 84.6573 13.646L81.7602 21.979L78.9331 13.6486C78.8787 13.488 78.734 13.3851 78.5638 13.3851H77.1145C76.9843 13.3851 76.8726 13.4424 76.7971 13.5475C76.7216 13.6526 76.7035 13.7764 76.746 13.8984L80.3897 24.4021C80.4449 24.5611 80.5892 24.6633 80.7583 24.6633L80.7575 24.6629ZM101.464 24.9455C103.219 24.9455 104.689 24.545 106.325 23.6033L106.538 24.6629H107.761C107.976 24.6629 108.151 24.4888 108.151 24.2757V8.42704C108.151 8.21358 107.976 8.03979 107.761 8.03979H106.407C106.192 8.03979 106.017 8.21358 106.017 8.42704V14.279C104.499 13.4549 103.1 13.1019 101.464 13.1019C97.8362 13.1019 96.3662 14.7971 96.3662 19.0119C96.3662 23.2503 97.8362 24.9455 101.464 24.9455ZM101.891 23.0383C99.4013 23.0383 98.524 21.9787 98.524 19.0354C98.524 16.0686 99.4013 15.0094 101.891 15.0094C103.361 15.0094 104.523 15.386 106.017 16.328V21.72C104.523 22.662 103.361 23.0386 101.891 23.0386V23.0383ZM111.529 29.4899H112.111C114.339 29.4899 115.122 28.9483 115.999 26.8056L121.282 13.9179C121.332 13.7948 121.319 13.6662 121.244 13.556C121.169 13.4458 121.054 13.3848 120.92 13.3848H119.512C119.349 13.3848 119.21 13.4781 119.15 13.6284L115.881 21.7667L112.495 13.6239C112.433 13.4759 112.295 13.3848 112.134 13.3848H110.659C110.525 13.3848 110.409 13.4465 110.334 13.5582C110.26 13.6699 110.248 13.7996 110.3 13.923L114.766 24.4043L114.126 25.9584C113.557 27.324 113.201 27.6301 112.039 27.6301H111.528C111.313 27.6301 111.138 27.8042 111.138 28.0173V29.103C111.138 29.3164 111.313 29.4902 111.528 29.4902L111.529 29.4899ZM126.997 24.6629H128.026C128.185 24.6629 128.321 24.5744 128.384 24.4296L132.93 14.02C132.984 13.8966 132.973 13.7658 132.898 13.6533C132.824 13.5409 132.708 13.4785 132.573 13.4785H131.953C131.794 13.4785 131.658 13.5674 131.595 13.7125L127.523 23.1084L123.451 13.7125C123.388 13.5674 123.252 13.4785 123.093 13.4785H122.45C122.315 13.4785 122.199 13.5409 122.124 13.6533C122.05 13.7658 122.039 13.8966 122.093 14.02L126.639 24.4296C126.702 24.5744 126.838 24.6629 126.997 24.6629ZM141.015 24.9455C142.696 24.9455 143.861 24.761 145.241 24.297C145.42 24.2371 145.528 24.0644 145.503 23.8796L145.443 23.427C145.427 23.3072 145.364 23.2106 145.26 23.1474C145.156 23.0842 145.041 23.0724 144.926 23.1128C143.679 23.5523 142.586 23.7213 141.039 23.7213C137.293 23.7213 135.989 22.7322 135.87 19.5299H145.813C146.017 19.5299 146.185 19.376 146.202 19.1747C146.222 18.9307 146.232 18.6533 146.232 18.3763C146.232 14.6795 144.596 13.1963 140.494 13.1963C136.178 13.1963 134.495 14.8209 134.495 19.1063C134.495 23.4622 136.25 24.9455 141.015 24.9455ZM135.894 18.3528C136.06 15.4095 137.293 14.4208 140.494 14.4208C143.695 14.4208 144.857 15.4334 144.904 18.3528H135.894ZM153.725 24.9455C157.732 24.9455 159.084 24.0508 159.084 21.5551C159.084 19.4359 158.135 18.6827 154.982 18.4002L153.417 18.2587C150.737 18.0232 150.144 17.6466 150.144 16.4221C150.144 14.915 151.093 14.4208 153.938 14.4208C155.569 14.4208 156.765 14.5898 157.966 14.9451C158.078 14.9782 158.188 14.9631 158.287 14.9007C158.386 14.8382 158.446 14.7456 158.463 14.6306L158.537 14.135C158.566 13.9432 158.45 13.7628 158.263 13.7073C157.01 13.3363 155.7 13.1963 154.128 13.1963C150.216 13.1963 148.793 14.0674 148.793 16.4926C148.793 18.5177 149.742 19.1769 152.966 19.5064L154.531 19.6714C157.14 19.9539 157.732 20.2835 157.732 21.6021C157.732 23.2267 156.784 23.7213 153.891 23.7213C151.921 23.7213 150.57 23.4909 149.191 23.0475C149.077 23.0107 148.964 23.025 148.863 23.0886C148.761 23.1525 148.7 23.2477 148.685 23.366L148.621 23.8543C148.597 24.0405 148.707 24.2136 148.886 24.2724C150.328 24.7404 151.799 24.9455 153.726 24.9455H153.725ZM166.102 24.6629H167.609C167.824 24.6629 167.999 24.4888 167.999 24.2757V23.8495C167.999 23.636 167.824 23.4622 167.609 23.4622H166.363C164.609 23.4622 164.134 22.9912 164.134 21.1785V14.6563H167.585C167.8 14.6563 167.975 14.4822 167.975 14.2691V13.8664C167.975 13.653 167.8 13.4792 167.585 13.4792H164.134V10.4992C164.134 10.2861 163.959 10.1119 163.744 10.1119H163.278C163.068 10.1119 162.896 10.2773 162.888 10.4856L162.783 13.4788H160.422C160.208 13.4788 160.033 13.6526 160.033 13.8661V14.2687C160.033 14.4818 160.208 14.656 160.422 14.656H162.759V21.2722C162.759 23.815 163.661 24.6626 166.103 24.6626L166.102 24.6629Z" fill="#214D52"/>
<path fill-rule="evenodd" clip-rule="evenodd" d="M25.6852 35.5191C25.6453 35.0308 25.5439 34.1289 25.4347 33.1567C25.2405 31.4233 25.0207 29.4665 25.0729 29.1238L25.1132 28.8607L25.3733 28.9213C25.7696 29.0139 27.1504 29.8744 27.9181 30.3531L28.3233 30.6036L29.0651 31.057C29.6926 31.4424 30.3224 31.8289 30.9628 32.1831C31.533 31.7683 32.2538 31.0368 32.8913 30.2678C33.5103 29.5216 34.0468 28.7457 34.285 28.1975C33.7156 27.7291 31.5404 26.459 30.036 25.5805C29.4558 25.2418 28.9741 24.9603 28.7162 24.8016C27.4993 24.0518 26.1884 23.799 24.9589 23.9415C24.0965 24.0415 23.2725 24.3376 22.5488 24.7932C21.8247 25.2495 21.2005 25.8653 20.7384 26.6052C20.0746 27.6677 19.7409 28.99 19.9148 30.4688C19.9447 30.7238 19.995 31.2517 20.0561 31.8936C20.2178 33.591 20.4579 36.111 20.6422 36.8197C21.2245 36.8355 22.1595 36.6779 23.1063 36.4362C24.0868 36.186 25.071 35.8472 25.6841 35.5184L25.6852 35.5191Z" fill="#C0D271"/>
<path fill-rule="evenodd" clip-rule="evenodd" d="M18.0506 31.1011C18.0684 29.9713 17.9881 28.9326 17.6262 27.9969C17.2681 27.0714 16.6265 26.2344 15.5173 25.4923C14.7136 24.9544 13.6947 24.5896 12.6172 24.5165C11.6586 24.4514 10.654 24.6168 9.71462 25.0955C9.20107 25.3575 8.19838 26.0368 7.12243 26.8072C5.75122 27.7893 4.26865 28.9154 3.51978 29.5205C3.85166 30.1499 4.48472 30.8578 5.17292 31.5177C5.87369 32.1893 6.62737 32.8065 7.18755 33.246L12.8363 29.1968L12.8492 29.659C12.8625 30.13 12.83 31.0019 12.7937 31.97C12.7345 33.5608 12.665 35.4169 12.7712 36.0981L13.2925 36.244C14.6215 36.6205 16.4833 37.1481 17.8616 36.9604L18.051 31.1011H18.0506Z" fill="#99CC99"/>
<path fill-rule="evenodd" clip-rule="evenodd" d="M8.82908 23.4574C9.64344 22.809 10.1981 21.9852 10.5237 21.1005C10.8863 20.1148 10.9662 19.0523 10.8067 18.0706C10.302 14.9675 7.97439 13.9865 5.37516 12.8909C4.91859 12.6984 4.4535 12.5026 3.97177 12.2836L3.67762 12.1491C2.99831 11.8372 1.91755 11.3409 1.37144 11.1785C1.05731 11.6906 0.696562 12.6914 0.423135 13.6977C0.150818 14.7004 -0.0323299 15.6935 0.00540969 16.195L6.33715 18.9927L0.220377 22.3758C0.410555 23.1969 0.624413 24.0438 0.91745 24.8756C1.20531 25.6923 1.57049 26.4962 2.06703 27.249C2.6198 26.9448 3.29394 26.5972 4.01173 26.2276C5.77402 25.3202 7.79975 24.2767 8.82871 23.4574H8.82908Z" fill="#7CB8A6"/>
<path fill-rule="evenodd" clip-rule="evenodd" d="M11.0625 13.0487C12.1041 13.1086 13.22 12.8518 14.3921 12.1133C17.5056 10.151 17.1556 7.31431 16.8034 4.464C16.7564 4.07933 16.7087 3.6943 16.6654 3.26554C16.6458 3.07302 16.6284 2.87536 16.6091 2.65234C16.5388 1.83414 16.4378 0.669103 16.2998 0.123511C15.7537 0.0926489 14.6352 0.274881 13.5508 0.564394C12.6113 0.81533 11.7111 1.14379 11.256 1.47812C11.2768 2.08434 11.417 3.10461 11.5609 4.15355C11.7707 5.679 11.9883 7.26545 11.8669 7.84668L11.7966 8.18212L5.98212 4.7469C5.42342 5.16427 4.65198 5.96007 3.98007 6.77386C3.36255 7.52189 2.83567 8.2758 2.64697 8.74681C3.28226 9.22113 5.83671 10.719 7.2845 11.5674L8.15103 12.0773C9.04013 12.6089 10.0184 12.9885 11.0629 13.048L11.0625 13.0487Z" fill="#54AB68"/>
<path fill-rule="evenodd" clip-rule="evenodd" d="M19.2774 8.89528C19.6182 9.84758 20.2564 10.722 21.4249 11.4895C25.1777 13.9559 28.4319 11.3745 31.787 8.71231C32.3257 8.28576 32.8666 7.857 33.4065 7.44955C32.4119 5.90389 31.1491 4.87994 29.9196 3.88354L29.7553 3.75054L24.1543 7.76845L24.1081 7.34962C24.0223 6.57293 24.0766 5.19517 24.1281 3.87766C24.1791 2.5833 24.2276 1.34846 24.141 0.864227C23.4192 0.596758 22.3954 0.327452 21.369 0.162121C20.5569 0.0316934 19.7458 -0.0340717 19.0861 0.0177321L18.9015 5.76207C18.8841 6.87346 18.9318 7.93085 19.277 8.89565L19.2774 8.89528Z" fill="#41747A"/>
</svg>
