<svg width="24" height="24" viewBox="0 0 24 24" fill="none" xmlns="http://www.w3.org/2000/svg">
<path d="M13.2863 14.9399L19.6609 14.9399C20.578 14.9399 21.3161 15.695 21.3161 16.633L21.3161 22.307C21.3161 23.245 20.578 24 19.6609 24L13.2863 24C12.3692 24 11.6311 23.245 11.6311 22.307L11.6311 16.6101C11.6311 15.695 12.3692 14.9399 13.2863 14.9399Z" fill="#C0D271"/>
<path d="M1.65523 14.9399L8.02989 14.9399C8.94694 14.9399 9.68506 15.6949 9.68506 16.633L9.68506 22.307C9.68506 23.245 8.94694 24 8.02989 24L1.65523 24C0.738176 24 5.82401e-05 23.245 5.83221e-05 22.307L5.88202e-05 16.6101C5.89002e-05 15.6949 0.738177 14.9399 1.65523 14.9399Z" fill="#C0D271"/>
<path d="M1.65524 3.63777L8.02989 3.63777C8.94694 3.63777 9.68506 4.39277 9.68506 5.33081L9.68506 11.0277C9.68506 11.9657 8.94694 12.7207 8.02989 12.7207L1.65524 12.7207C0.738184 12.7207 6.58695e-05 11.9657 6.59515e-05 11.0277L6.64496e-05 5.33081C6.65316e-05 4.39277 0.738185 3.63777 1.65524 3.63777Z" fill="#C0D271"/>
<path d="M14.1137 8.40127e-05L22.3448 8.47323e-05C23.2619 8.48125e-05 24 0.75509 24 1.69313L24 11.0506C24 11.9886 23.2619 12.7437 22.3448 12.7437L14.0913 12.7437C13.1743 12.7437 12.4362 11.9886 12.4362 11.0506L12.4362 1.69313C12.4585 0.755089 13.1966 8.39326e-05 14.1137 8.40127e-05Z" fill="#54AB68"/>
</svg>
