<svg width="591" height="284" viewBox="0 0 591 284" fill="none" xmlns="http://www.w3.org/2000/svg">
<g opacity="0.24">
<rect width="14" height="152" transform="matrix(-1 0 0 1 582.808 121)" fill="#54AB68"/>
</g>
<g opacity="0.64">
<rect width="14" height="2" transform="matrix(-1 0 0 1 582.808 117)" fill="#54AB68"/>
</g>
<g opacity="0.24">
<rect width="14" height="166" transform="matrix(-1 0 0 1 564.814 107)" fill="#54AB68"/>
</g>
<g opacity="0.64">
<rect width="14" height="2" transform="matrix(-1 0 0 1 564.814 103)" fill="#54AB68"/>
</g>
<g opacity="0.24">
<rect width="14" height="180" transform="matrix(-1 0 0 1 546.821 93)" fill="#54AB68"/>
</g>
<g opacity="0.64">
<rect width="14" height="2" transform="matrix(-1 0 0 1 546.821 89)" fill="#54AB68"/>
</g>
<g opacity="0.24">
<rect width="14" height="172" transform="matrix(-1 0 0 1 528.827 101)" fill="#54AB68"/>
</g>
<g opacity="0.64">
<rect width="14" height="2" transform="matrix(-1 0 0 1 528.827 97)" fill="#54AB68"/>
</g>
<g opacity="0.24">
<rect width="14" height="186" transform="matrix(-1 0 0 1 510.833 87)" fill="#54AB68"/>
</g>
<g opacity="0.64">
<rect width="14" height="2" transform="matrix(-1 0 0 1 510.833 83)" fill="#54AB68"/>
</g>
<g opacity="0.24">
<rect width="14" height="164" transform="matrix(-1 0 0 1 492.839 109)" fill="#54AB68"/>
</g>
<g opacity="0.64">
<rect width="14" height="2" transform="matrix(-1 0 0 1 492.839 105)" fill="#54AB68"/>
</g>
<g opacity="0.24">
<rect width="14" height="166" transform="matrix(-1 0 0 1 474.845 107)" fill="#54AB68"/>
</g>
<g opacity="0.64">
<rect width="14" height="2" transform="matrix(-1 0 0 1 474.845 103)" fill="#54AB68"/>
</g>
<g opacity="0.24">
<rect width="14" height="170" transform="matrix(-1 0 0 1 456.851 103)" fill="#54AB68"/>
</g>
<g opacity="0.64">
<rect width="14" height="2" transform="matrix(-1 0 0 1 456.851 99)" fill="#54AB68"/>
</g>
<g opacity="0.24">
<rect width="14" height="180" transform="matrix(-1 0 0 1 438.858 93)" fill="#54AB68"/>
</g>
<g opacity="0.64">
<rect width="14" height="2" transform="matrix(-1 0 0 1 438.858 89)" fill="#54AB68"/>
</g>
<g opacity="0.24">
<rect width="14" height="168" transform="matrix(-1 0 0 1 420.864 105)" fill="#54AB68"/>
</g>
<g opacity="0.64">
<rect width="14" height="2" transform="matrix(-1 0 0 1 420.864 101)" fill="#54AB68"/>
</g>
<g opacity="0.24">
<rect width="14" height="182" transform="matrix(-1 0 0 1 402.87 91)" fill="#54AB68"/>
</g>
<g opacity="0.64">
<rect width="14" height="2" transform="matrix(-1 0 0 1 402.87 87)" fill="#54AB68"/>
</g>
<g opacity="0.24">
<rect width="14" height="176" transform="matrix(-1 0 0 1 384.876 97)" fill="#54AB68"/>
</g>
<g opacity="0.64">
<rect width="14" height="2" transform="matrix(-1 0 0 1 384.876 93)" fill="#54AB68"/>
</g>
<g opacity="0.24">
<rect width="14" height="184" transform="matrix(-1 0 0 1 366.883 89)" fill="#54AB68"/>
</g>
<g opacity="0.64">
<rect width="14" height="2" transform="matrix(-1 0 0 1 366.883 85)" fill="#54AB68"/>
</g>
<g opacity="0.24">
<rect width="14" height="188" transform="matrix(-1 0 0 1 348.889 85)" fill="#54AB68"/>
</g>
<g opacity="0.64">
<rect width="14" height="2" transform="matrix(-1 0 0 1 348.889 81)" fill="#54AB68"/>
</g>
<g opacity="0.24">
<rect width="14" height="197" transform="matrix(-1 0 0 1 330.895 76)" fill="#54AB68"/>
</g>
<g opacity="0.64">
<rect width="14" height="2" transform="matrix(-1 0 0 1 330.895 72)" fill="#54AB68"/>
</g>
<g opacity="0.24">
<rect width="14" height="194" transform="matrix(-1 0 0 1 312.901 79)" fill="#54AB68"/>
</g>
<g opacity="0.64">
<rect width="14" height="2" transform="matrix(-1 0 0 1 312.901 75)" fill="#54AB68"/>
</g>
<g opacity="0.24">
<rect width="14" height="192" transform="matrix(-1 0 0 1 294.907 81)" fill="#54AB68"/>
</g>
<g opacity="0.64">
<rect width="14" height="2" transform="matrix(-1 0 0 1 294.907 77)" fill="#54AB68"/>
</g>
<g opacity="0.24">
<rect width="14" height="196" transform="matrix(-1 0 0 1 276.913 77)" fill="#54AB68"/>
</g>
<g opacity="0.64">
<rect width="14" height="2" transform="matrix(-1 0 0 1 276.913 73)" fill="#54AB68"/>
</g>
<g opacity="0.24">
<rect width="14" height="186" transform="matrix(-1 0 0 1 258.92 87)" fill="#54AB68"/>
</g>
<g opacity="0.64">
<rect width="14" height="2" transform="matrix(-1 0 0 1 258.92 83)" fill="#54AB68"/>
</g>
<g opacity="0.24">
<rect width="14" height="208" transform="matrix(-1 0 0 1 240.926 65)" fill="#54AB68"/>
</g>
<g opacity="0.64">
<rect width="14" height="2" transform="matrix(-1 0 0 1 240.926 61)" fill="#54AB68"/>
</g>
<g opacity="0.24">
<rect width="14" height="192" transform="matrix(-1 0 0 1 222.932 81)" fill="#54AB68"/>
</g>
<g opacity="0.64">
<rect width="14" height="2" transform="matrix(-1 0 0 1 222.932 77)" fill="#54AB68"/>
</g>
<g opacity="0.24">
<rect width="14" height="201" transform="matrix(-1 0 0 1 204.938 72)" fill="#54AB68"/>
</g>
<g opacity="0.64">
<rect width="14" height="2" transform="matrix(-1 0 0 1 204.938 68)" fill="#54AB68"/>
</g>
<g opacity="0.24">
<rect width="14" height="210" transform="matrix(-1 0 0 1 186.944 63)" fill="#54AB68"/>
</g>
<g opacity="0.64">
<rect width="14" height="2" transform="matrix(-1 0 0 1 186.944 59)" fill="#54AB68"/>
</g>
<g opacity="0.24">
<rect width="14" height="204" transform="matrix(-1 0 0 1 168.951 69)" fill="#54AB68"/>
</g>
<g opacity="0.64">
<rect width="14" height="2" transform="matrix(-1 0 0 1 168.951 65)" fill="#54AB68"/>
</g>
<g opacity="0.24">
<rect width="14" height="199" transform="matrix(-1 0 0 1 150.957 74)" fill="#54AB68"/>
</g>
<g opacity="0.64">
<rect width="14" height="2" transform="matrix(-1 0 0 1 150.957 70)" fill="#54AB68"/>
</g>
<g opacity="0.24">
<rect width="14" height="217" transform="matrix(-1 0 0 1 132.963 56)" fill="#54AB68"/>
</g>
<g opacity="0.64">
<rect width="14" height="2" transform="matrix(-1 0 0 1 132.963 52)" fill="#54AB68"/>
</g>
<g opacity="0.24">
<rect width="14" height="212" transform="matrix(-1 0 0 1 114.969 61)" fill="#54AB68"/>
</g>
<g opacity="0.64">
<rect width="14" height="2" transform="matrix(-1 0 0 1 114.969 57)" fill="#54AB68"/>
</g>
<g opacity="0.24">
<rect width="14" height="204" transform="matrix(-1 0 0 1 96.9753 69)" fill="#54AB68"/>
</g>
<g opacity="0.64">
<rect width="14" height="2" transform="matrix(-1 0 0 1 96.9753 65)" fill="#54AB68"/>
</g>
<g opacity="0.24">
<rect width="14" height="208" transform="matrix(-1 0 0 1 78.9814 65)" fill="#54AB68"/>
</g>
<g opacity="0.64">
<rect width="14" height="2" transform="matrix(-1 0 0 1 78.9814 61)" fill="#54AB68"/>
</g>
<g opacity="0.24">
<rect width="14" height="217" transform="matrix(-1 0 0 1 60.9877 56)" fill="#54AB68"/>
</g>
<g opacity="0.64">
<rect width="14" height="2" transform="matrix(-1 0 0 1 60.9877 52)" fill="#54AB68"/>
</g>
<g opacity="0.24">
<rect width="14" height="227" transform="matrix(-1 0 0 1 42.9938 46)" fill="#54AB68"/>
</g>
<g opacity="0.64">
<rect width="14" height="2" transform="matrix(-1 0 0 1 42.9938 42)" fill="#54AB68"/>
</g>
<path d="M35.9463 282H36.6423V276.28H35.9943L34.6663 277.24V277.888L35.9463 276.968V282Z" fill="#293737"/>
<path d="M50.4372 282H54.2692V281.432H51.5092L53.0852 279.896C53.7892 279.208 54.2372 278.52 54.2372 277.816C54.2372 276.832 53.5652 276.208 52.5092 276.208C51.4212 276.208 50.7412 276.92 50.6532 278.04H51.3012C51.4132 277.144 51.8452 276.768 52.5092 276.768C53.1572 276.768 53.5332 277.152 53.5332 277.792C53.5332 278.376 53.2292 278.896 52.7092 279.448L50.4372 281.84V282Z" fill="#293737"/>
<path d="M72.4059 282.072C73.5899 282.072 74.4379 281.448 74.4379 280.408C74.4379 279.616 74.0059 279.144 73.3339 278.968C73.8539 278.752 74.2379 278.368 74.2379 277.72C74.2379 276.928 73.6059 276.208 72.5179 276.208C71.4299 276.208 70.6859 276.952 70.6459 277.856H71.2539C71.3259 277.208 71.8059 276.776 72.5179 276.776C73.2139 276.776 73.5579 277.192 73.5579 277.736C73.5579 278.36 73.2299 278.712 72.4859 278.712H72.0859V279.296H72.5179C73.3259 279.296 73.7259 279.672 73.7259 280.408C73.7259 281.08 73.3179 281.512 72.4219 281.512C71.5179 281.512 71.1099 280.992 71.0459 280.312H70.4059C70.4459 281.312 71.1899 282.072 72.4059 282.072Z" fill="#293737"/>
<path d="M91.2073 282H91.8873V280.8H92.6793V280.232H91.8873V276.28H90.9593L88.3433 280.576V280.8H91.2073V282ZM89.2233 280.232L91.2073 276.808V280.232H89.2233Z" fill="#293737"/>
<path d="M108.4 282.072C109.488 282.072 110.36 281.336 110.36 280.128C110.36 278.96 109.608 278.232 108.584 278.232C108.04 278.232 107.648 278.408 107.416 278.624V276.88H110.056V276.28H106.84V279.344H107.096C107.4 279 107.784 278.792 108.448 278.792C109.176 278.792 109.648 279.32 109.648 280.128C109.648 280.992 109.168 281.512 108.392 281.512C107.52 281.512 107.272 281.08 107.16 280.456H106.496C106.576 281.392 107.168 282.072 108.4 282.072Z" fill="#293737"/>
<path d="M126.559 282.072C127.767 282.072 128.535 281.304 128.535 280.16C128.535 279.112 127.799 278.288 126.663 278.288C125.999 278.288 125.463 278.6 125.191 279.064C125.223 277.552 125.831 276.776 126.695 276.776C127.335 276.776 127.623 277.064 127.751 277.592H128.415C128.263 276.672 127.631 276.208 126.743 276.208C125.431 276.208 124.503 277.28 124.503 279.336V279.472C124.503 280.904 124.999 282.072 126.559 282.072ZM126.559 281.528C125.791 281.528 125.239 281.032 125.239 280.096C125.239 279.352 125.783 278.832 126.551 278.832C127.327 278.832 127.823 279.368 127.823 280.192C127.823 281 127.311 281.528 126.559 281.528Z" fill="#293737"/>
<path d="M143.566 282H144.278L146.422 276.376V276.28H142.654V276.84H145.558L143.566 282Z" fill="#293737"/>
<path d="M162.502 282.072C163.47 282.072 164.47 281.504 164.47 280.36C164.47 279.624 164.038 279.128 163.374 278.888C163.902 278.656 164.254 278.256 164.254 277.68C164.254 276.784 163.39 276.208 162.502 276.208C161.622 276.208 160.742 276.768 160.742 277.696C160.742 278.256 161.062 278.688 161.606 278.896C160.998 279.112 160.526 279.608 160.526 280.376C160.526 281.512 161.566 282.072 162.502 282.072ZM162.502 281.504C161.838 281.504 161.238 281.104 161.238 280.352C161.238 279.592 161.838 279.2 162.518 279.2C163.198 279.2 163.758 279.584 163.758 280.336C163.758 281.096 163.206 281.504 162.502 281.504ZM162.526 278.648C161.942 278.648 161.446 278.304 161.446 277.704C161.446 277.112 161.91 276.752 162.502 276.752C163.094 276.752 163.55 277.136 163.55 277.688C163.55 278.296 163.134 278.648 162.526 278.648Z" fill="#293737"/>
<path d="M180.34 282.064C181.708 282.064 182.492 281.016 182.492 279.12V278.76C182.492 277.112 181.788 276.2 180.436 276.2C179.228 276.2 178.46 276.968 178.46 278.112C178.46 279.192 179.228 279.984 180.34 279.984C180.996 279.984 181.548 279.688 181.82 279.224C181.804 280.744 181.268 281.496 180.356 281.496C179.62 281.496 179.3 281.152 179.172 280.592H178.5C178.652 281.512 179.284 282.064 180.34 282.064ZM180.444 279.44C179.668 279.44 179.172 278.904 179.172 278.08C179.172 277.272 179.684 276.744 180.436 276.744C181.204 276.744 181.756 277.264 181.756 278.2C181.756 278.944 181.212 279.44 180.444 279.44Z" fill="#293737"/>
<path d="M195.724 282H196.42V276.28H195.772L194.444 277.24V277.888L195.724 276.968V282ZM200.127 281.496C199.175 281.496 198.567 280.744 198.567 279.296V278.976C198.567 277.568 199.143 276.768 200.111 276.768C201.079 276.768 201.639 277.632 201.639 278.96V279.28C201.639 280.728 201.127 281.496 200.127 281.496ZM200.127 282.072C201.535 282.072 202.343 280.952 202.343 279.288V278.968C202.343 277.336 201.519 276.208 200.111 276.208C198.711 276.208 197.855 277.296 197.855 278.984V279.304C197.855 280.968 198.759 282.072 200.127 282.072Z" fill="#293737"/>
<path d="M214.849 282H215.545V276.28H214.897L213.569 277.24V277.888L214.849 276.968V282ZM218.044 282H218.74V276.28H218.092L216.764 277.24V277.888L218.044 276.968V282Z" fill="#293737"/>
<path d="M231.732 282H232.428V276.28H231.78L230.451 277.24V277.888L231.732 276.968V282ZM233.535 282H237.367V281.432H234.607L236.183 279.896C236.887 279.208 237.335 278.52 237.335 277.816C237.335 276.832 236.663 276.208 235.607 276.208C234.519 276.208 233.839 276.92 233.751 278.04H234.399C234.511 277.144 234.943 276.768 235.607 276.768C236.255 276.768 236.631 277.152 236.631 277.792C236.631 278.376 236.327 278.896 235.807 279.448L233.535 281.84V282Z" fill="#293737"/>
<path d="M250.032 282H250.728V276.28H250.08L248.752 277.24V277.888L250.032 276.968V282ZM254.004 282.072C255.188 282.072 256.036 281.448 256.036 280.408C256.036 279.616 255.604 279.144 254.932 278.968C255.452 278.752 255.836 278.368 255.836 277.72C255.836 276.928 255.204 276.208 254.116 276.208C253.028 276.208 252.284 276.952 252.244 277.856H252.852C252.924 277.208 253.404 276.776 254.116 276.776C254.812 276.776 255.156 277.192 255.156 277.736C255.156 278.36 254.828 278.712 254.084 278.712H253.684V279.296H254.116C254.924 279.296 255.324 279.672 255.324 280.408C255.324 281.08 254.916 281.512 254.02 281.512C253.116 281.512 252.708 280.992 252.644 280.312H252.004C252.044 281.312 252.788 282.072 254.004 282.072Z" fill="#293737"/>
<path d="M267.556 282H268.252V276.28H267.604L266.276 277.24V277.888L267.556 276.968V282ZM272.227 282H272.907V280.8H273.699V280.232H272.907V276.28H271.979L269.363 280.576V280.8H272.227V282ZM270.243 280.232L272.227 276.808V280.232H270.243Z" fill="#293737"/>
<path d="M285.599 282H286.295V276.28H285.647L284.319 277.24V277.888L285.599 276.968V282ZM289.498 282.072C290.586 282.072 291.458 281.336 291.458 280.128C291.458 278.96 290.706 278.232 289.682 278.232C289.138 278.232 288.746 278.408 288.514 278.624V276.88H291.154V276.28H287.938V279.344H288.194C288.498 279 288.882 278.792 289.546 278.792C290.274 278.792 290.746 279.32 290.746 280.128C290.746 280.992 290.266 281.512 289.49 281.512C288.618 281.512 288.37 281.08 288.258 280.456H287.594C287.674 281.392 288.266 282.072 289.498 282.072Z" fill="#293737"/>
<path d="M303.97 282H304.666V276.28H304.018L302.69 277.24V277.888L303.97 276.968V282ZM308.157 282.072C309.365 282.072 310.133 281.304 310.133 280.16C310.133 279.112 309.397 278.288 308.261 278.288C307.597 278.288 307.061 278.6 306.789 279.064C306.821 277.552 307.429 276.776 308.293 276.776C308.933 276.776 309.221 277.064 309.349 277.592H310.013C309.861 276.672 309.229 276.208 308.341 276.208C307.029 276.208 306.101 277.28 306.101 279.336V279.472C306.101 280.904 306.597 282.072 308.157 282.072ZM308.157 281.528C307.389 281.528 306.837 281.032 306.837 280.096C306.837 279.352 307.381 278.832 308.149 278.832C308.925 278.832 309.421 279.368 309.421 280.192C309.421 281 308.909 281.528 308.157 281.528Z" fill="#293737"/>
<path d="M321.845 282H322.541V276.28H321.893L320.565 277.24V277.888L321.845 276.968V282ZM324.664 282H325.376L327.52 276.376V276.28H323.752V276.84H326.656L324.664 282Z" fill="#293737"/>
<path d="M340.017 282H340.713V276.28H340.065L338.737 277.24V277.888L340.017 276.968V282ZM344.1 282.072C345.068 282.072 346.068 281.504 346.068 280.36C346.068 279.624 345.636 279.128 344.972 278.888C345.5 278.656 345.852 278.256 345.852 277.68C345.852 276.784 344.988 276.208 344.1 276.208C343.22 276.208 342.34 276.768 342.34 277.696C342.34 278.256 342.66 278.688 343.204 278.896C342.596 279.112 342.124 279.608 342.124 280.376C342.124 281.512 343.164 282.072 344.1 282.072ZM344.1 281.504C343.436 281.504 342.836 281.104 342.836 280.352C342.836 279.592 343.436 279.2 344.116 279.2C344.796 279.2 345.356 279.584 345.356 280.336C345.356 281.096 344.804 281.504 344.1 281.504ZM344.124 278.648C343.54 278.648 343.044 278.304 343.044 277.704C343.044 277.112 343.508 276.752 344.1 276.752C344.692 276.752 345.148 277.136 345.148 277.688C345.148 278.296 344.732 278.648 344.124 278.648Z" fill="#293737"/>
<path d="M358.005 282H358.701V276.28H358.053L356.725 277.24V277.888L358.005 276.968V282ZM361.898 282.064C363.266 282.064 364.05 281.016 364.05 279.12V278.76C364.05 277.112 363.346 276.2 361.994 276.2C360.786 276.2 360.018 276.968 360.018 278.112C360.018 279.192 360.786 279.984 361.898 279.984C362.554 279.984 363.106 279.688 363.378 279.224C363.362 280.744 362.826 281.496 361.914 281.496C361.178 281.496 360.858 281.152 360.73 280.592H360.058C360.21 281.512 360.842 282.064 361.898 282.064ZM362.002 279.44C361.226 279.44 360.73 278.904 360.73 278.08C360.73 277.272 361.242 276.744 361.994 276.744C362.762 276.744 363.314 277.264 363.314 278.2C363.314 278.944 362.77 279.44 362.002 279.44Z" fill="#293737"/>
<path d="M373.234 282H377.066V281.432H374.306L375.882 279.896C376.586 279.208 377.034 278.52 377.034 277.816C377.034 276.832 376.362 276.208 375.306 276.208C374.218 276.208 373.538 276.92 373.45 278.04H374.098C374.21 277.144 374.642 276.768 375.306 276.768C375.954 276.768 376.33 277.152 376.33 277.792C376.33 278.376 376.026 278.896 375.506 279.448L373.234 281.84V282ZM380.225 281.496C379.273 281.496 378.665 280.744 378.665 279.296V278.976C378.665 277.568 379.241 276.768 380.209 276.768C381.177 276.768 381.737 277.632 381.737 278.96V279.28C381.737 280.728 381.225 281.496 380.225 281.496ZM380.225 282.072C381.633 282.072 382.441 280.952 382.441 279.288V278.968C382.441 277.336 381.617 276.208 380.209 276.208C378.809 276.208 377.953 277.296 377.953 278.984V279.304C377.953 280.968 378.857 282.072 380.225 282.072Z" fill="#293737"/>
<path d="M392.34 282H396.172V281.432H393.412L394.988 279.896C395.692 279.208 396.14 278.52 396.14 277.816C396.14 276.832 395.468 276.208 394.412 276.208C393.324 276.208 392.644 276.92 392.556 278.04H393.204C393.316 277.144 393.748 276.768 394.412 276.768C395.06 276.768 395.436 277.152 395.436 277.792C395.436 278.376 395.132 278.896 394.612 279.448L392.34 281.84V282ZM398.161 282H398.857V276.28H398.209L396.881 277.24V277.888L398.161 276.968V282Z" fill="#293737"/>
<path d="M410.222 282H414.054V281.432H411.294L412.87 279.896C413.574 279.208 414.022 278.52 414.022 277.816C414.022 276.832 413.35 276.208 412.294 276.208C411.206 276.208 410.526 276.92 410.438 278.04H411.086C411.198 277.144 411.63 276.768 412.294 276.768C412.942 276.768 413.318 277.152 413.318 277.792C413.318 278.376 413.014 278.896 412.494 279.448L410.222 281.84V282ZM414.652 282H418.484V281.432H415.724L417.3 279.896C418.004 279.208 418.452 278.52 418.452 277.816C418.452 276.832 417.78 276.208 416.724 276.208C415.636 276.208 414.956 276.92 414.868 278.04H415.516C415.628 277.144 416.06 276.768 416.724 276.768C417.372 276.768 417.748 277.152 417.748 277.792C417.748 278.376 417.444 278.896 416.924 279.448L414.652 281.84V282Z" fill="#293737"/>
<path d="M427.523 282H431.355V281.432H428.595L430.171 279.896C430.875 279.208 431.323 278.52 431.323 277.816C431.323 276.832 430.651 276.208 429.595 276.208C428.507 276.208 427.827 276.92 427.739 278.04H428.387C428.499 277.144 428.931 276.768 429.595 276.768C430.243 276.768 430.619 277.152 430.619 277.792C430.619 278.376 430.315 278.896 429.795 279.448L427.523 281.84V282ZM434.121 282.072C435.305 282.072 436.153 281.448 436.153 280.408C436.153 279.616 435.721 279.144 435.049 278.968C435.569 278.752 435.953 278.368 435.953 277.72C435.953 276.928 435.321 276.208 434.233 276.208C433.145 276.208 432.401 276.952 432.361 277.856H432.969C433.041 277.208 433.521 276.776 434.233 276.776C434.929 276.776 435.273 277.192 435.273 277.736C435.273 278.36 434.945 278.712 434.201 278.712H433.801V279.296H434.233C435.041 279.296 435.441 279.672 435.441 280.408C435.441 281.08 435.033 281.512 434.137 281.512C433.233 281.512 432.825 280.992 432.761 280.312H432.121C432.161 281.312 432.905 282.072 434.121 282.072Z" fill="#293737"/>
<path d="M445.609 282H449.441V281.432H446.681L448.257 279.896C448.961 279.208 449.409 278.52 449.409 277.816C449.409 276.832 448.737 276.208 447.681 276.208C446.593 276.208 445.913 276.92 445.825 278.04H446.473C446.585 277.144 447.017 276.768 447.681 276.768C448.329 276.768 448.705 277.152 448.705 277.792C448.705 278.376 448.401 278.896 447.881 279.448L445.609 281.84V282ZM452.781 282H453.461V280.8H454.253V280.232H453.461V276.28H452.533L449.917 280.576V280.8H452.781V282ZM450.797 280.232L452.781 276.808V280.232H450.797Z" fill="#293737"/>
<path d="M463.59 282H467.422V281.432H464.662L466.238 279.896C466.942 279.208 467.39 278.52 467.39 277.816C467.39 276.832 466.718 276.208 465.662 276.208C464.574 276.208 463.894 276.92 463.806 278.04H464.454C464.566 277.144 464.998 276.768 465.662 276.768C466.31 276.768 466.686 277.152 466.686 277.792C466.686 278.376 466.382 278.896 465.862 279.448L463.59 281.84V282ZM470.115 282.072C471.203 282.072 472.075 281.336 472.075 280.128C472.075 278.96 471.323 278.232 470.299 278.232C469.755 278.232 469.363 278.408 469.131 278.624V276.88H471.771V276.28H468.555V279.344H468.811C469.115 279 469.499 278.792 470.163 278.792C470.891 278.792 471.363 279.32 471.363 280.128C471.363 280.992 470.883 281.512 470.107 281.512C469.235 281.512 468.987 281.08 468.875 280.456H468.211C468.291 281.392 468.883 282.072 470.115 282.072Z" fill="#293737"/>
<path d="M481.5 282H485.332V281.432H482.572L484.148 279.896C484.852 279.208 485.3 278.52 485.3 277.816C485.3 276.832 484.628 276.208 483.572 276.208C482.484 276.208 481.804 276.92 481.716 278.04H482.364C482.476 277.144 482.908 276.768 483.572 276.768C484.22 276.768 484.596 277.152 484.596 277.792C484.596 278.376 484.292 278.896 483.772 279.448L481.5 281.84V282ZM488.235 282.072C489.443 282.072 490.211 281.304 490.211 280.16C490.211 279.112 489.475 278.288 488.339 278.288C487.675 278.288 487.139 278.6 486.867 279.064C486.899 277.552 487.507 276.776 488.371 276.776C489.011 276.776 489.299 277.064 489.427 277.592H490.091C489.939 276.672 489.307 276.208 488.419 276.208C487.107 276.208 486.179 277.28 486.179 279.336V279.472C486.179 280.904 486.675 282.072 488.235 282.072ZM488.235 281.528C487.467 281.528 486.915 281.032 486.915 280.096C486.915 279.352 487.459 278.832 488.227 278.832C489.003 278.832 489.499 279.368 489.499 280.192C489.499 281 488.987 281.528 488.235 281.528Z" fill="#293737"/>
<path d="M500.375 282H504.207V281.432H501.447L503.023 279.896C503.727 279.208 504.175 278.52 504.175 277.816C504.175 276.832 503.503 276.208 502.447 276.208C501.359 276.208 500.679 276.92 500.591 278.04H501.239C501.351 277.144 501.783 276.768 502.447 276.768C503.095 276.768 503.471 277.152 503.471 277.792C503.471 278.376 503.167 278.896 502.647 279.448L500.375 281.84V282ZM505.742 282H506.454L508.598 276.376V276.28H504.83V276.84H507.734L505.742 282Z" fill="#293737"/>
<path d="M517.547 282H521.379V281.432H518.619L520.195 279.896C520.899 279.208 521.347 278.52 521.347 277.816C521.347 276.832 520.675 276.208 519.619 276.208C518.531 276.208 517.851 276.92 517.763 278.04H518.411C518.523 277.144 518.955 276.768 519.619 276.768C520.267 276.768 520.643 277.152 520.643 277.792C520.643 278.376 520.339 278.896 519.819 279.448L517.547 281.84V282ZM524.178 282.072C525.146 282.072 526.146 281.504 526.146 280.36C526.146 279.624 525.714 279.128 525.05 278.888C525.578 278.656 525.93 278.256 525.93 277.68C525.93 276.784 525.066 276.208 524.178 276.208C523.298 276.208 522.418 276.768 522.418 277.696C522.418 278.256 522.738 278.688 523.282 278.896C522.674 279.112 522.202 279.608 522.202 280.376C522.202 281.512 523.242 282.072 524.178 282.072ZM524.178 281.504C523.514 281.504 522.914 281.104 522.914 280.352C522.914 279.592 523.514 279.2 524.194 279.2C524.874 279.2 525.434 279.584 525.434 280.336C525.434 281.096 524.882 281.504 524.178 281.504ZM524.202 278.648C523.618 278.648 523.122 278.304 523.122 277.704C523.122 277.112 523.586 276.752 524.178 276.752C524.77 276.752 525.226 277.136 525.226 277.688C525.226 278.296 524.81 278.648 524.202 278.648Z" fill="#293737"/>
<path d="M535.457 282H539.289V281.432H536.529L538.105 279.896C538.809 279.208 539.257 278.52 539.257 277.816C539.257 276.832 538.585 276.208 537.529 276.208C536.441 276.208 535.761 276.92 535.673 278.04H536.321C536.433 277.144 536.865 276.768 537.529 276.768C538.177 276.768 538.553 277.152 538.553 277.792C538.553 278.376 538.249 278.896 537.729 279.448L535.457 281.84V282ZM542.054 282.064C543.422 282.064 544.206 281.016 544.206 279.12V278.76C544.206 277.112 543.502 276.2 542.15 276.2C540.942 276.2 540.174 276.968 540.174 278.112C540.174 279.192 540.942 279.984 542.054 279.984C542.71 279.984 543.262 279.688 543.534 279.224C543.518 280.744 542.982 281.496 542.07 281.496C541.334 281.496 541.014 281.152 540.886 280.592H540.214C540.366 281.512 540.998 282.064 542.054 282.064ZM542.158 279.44C541.382 279.44 540.886 278.904 540.886 278.08C540.886 277.272 541.398 276.744 542.15 276.744C542.918 276.744 543.47 277.264 543.47 278.2C543.47 278.944 542.926 279.44 542.158 279.44Z" fill="#293737"/>
<path d="M555.683 282.072C556.867 282.072 557.715 281.448 557.715 280.408C557.715 279.616 557.283 279.144 556.611 278.968C557.131 278.752 557.515 278.368 557.515 277.72C557.515 276.928 556.883 276.208 555.795 276.208C554.707 276.208 553.963 276.952 553.923 277.856H554.531C554.603 277.208 555.083 276.776 555.795 276.776C556.491 276.776 556.835 277.192 556.835 277.736C556.835 278.36 556.507 278.712 555.763 278.712H555.363V279.296H555.795C556.603 279.296 557.003 279.672 557.003 280.408C557.003 281.08 556.595 281.512 555.699 281.512C554.795 281.512 554.387 280.992 554.323 280.312H553.683C553.723 281.312 554.467 282.072 555.683 282.072ZM560.943 281.496C559.991 281.496 559.383 280.744 559.383 279.296V278.976C559.383 277.568 559.959 276.768 560.927 276.768C561.895 276.768 562.455 277.632 562.455 278.96V279.28C562.455 280.728 561.943 281.496 560.943 281.496ZM560.943 282.072C562.351 282.072 563.159 280.952 563.159 279.288V278.968C563.159 277.336 562.335 276.208 560.927 276.208C559.527 276.208 558.671 277.296 558.671 278.984V279.304C558.671 280.968 559.575 282.072 560.943 282.072Z" fill="#293737"/>
<path d="M574.328 282.072C575.512 282.072 576.36 281.448 576.36 280.408C576.36 279.616 575.928 279.144 575.256 278.968C575.776 278.752 576.16 278.368 576.16 277.72C576.16 276.928 575.528 276.208 574.44 276.208C573.352 276.208 572.608 276.952 572.568 277.856H573.176C573.248 277.208 573.728 276.776 574.44 276.776C575.136 276.776 575.48 277.192 575.48 277.736C575.48 278.36 575.152 278.712 574.408 278.712H574.008V279.296H574.44C575.248 279.296 575.648 279.672 575.648 280.408C575.648 281.08 575.24 281.512 574.344 281.512C573.44 281.512 573.032 280.992 572.968 280.312H572.328C572.368 281.312 573.112 282.072 574.328 282.072ZM578.341 282H579.037V276.28H578.389L577.061 277.24V277.888L578.341 276.968V282Z" fill="#293737"/>
<path d="M2.79791 208H3.49391V202.28H2.84591L1.51791 203.24V203.888L2.79791 202.968V208ZM7.20122 207.496C6.24922 207.496 5.64122 206.744 5.64122 205.296V204.976C5.64122 203.568 6.21722 202.768 7.18522 202.768C8.15322 202.768 8.71322 203.632 8.71322 204.96V205.28C8.71322 206.728 8.20122 207.496 7.20122 207.496ZM7.20122 208.072C8.60922 208.072 9.41722 206.952 9.41722 205.288V204.968C9.41722 203.336 8.59322 202.208 7.18522 202.208C5.78522 202.208 4.92922 203.296 4.92922 204.984V205.304C4.92922 206.968 5.83322 208.072 7.20122 208.072ZM10.6145 208H11.2545V203.184L13.2145 208H13.4305L15.3265 203.184V208H16.0225V202.28H15.0625L13.3505 206.736L11.5825 202.28H10.6145V208Z" fill="#293737"/>
<path d="M1.30825 141H5.14025V140.432H2.38025L3.95625 138.896C4.66025 138.208 5.10825 137.52 5.10825 136.816C5.10825 135.832 4.43625 135.208 3.38025 135.208C2.29225 135.208 1.61225 135.92 1.52425 137.04H2.17225C2.28425 136.144 2.71625 135.768 3.38025 135.768C4.02825 135.768 4.40425 136.152 4.40425 136.792C4.40425 137.376 4.10025 137.896 3.58025 138.448L1.30825 140.84V141ZM8.29888 140.496C7.34688 140.496 6.73888 139.744 6.73888 138.296V137.976C6.73888 136.568 7.31488 135.768 8.28288 135.768C9.25088 135.768 9.81088 136.632 9.81088 137.96V138.28C9.81088 139.728 9.29888 140.496 8.29888 140.496ZM8.29888 141.072C9.70688 141.072 10.5149 139.952 10.5149 138.288V137.968C10.5149 136.336 9.69088 135.208 8.28288 135.208C6.88288 135.208 6.02688 136.296 6.02688 137.984V138.304C6.02688 139.968 6.93088 141.072 8.29888 141.072ZM11.7122 141H12.3522V136.184L14.3122 141H14.5282L16.4242 136.184V141H17.1202V135.28H16.1602L14.4482 139.736L12.6802 135.28H11.7122V141Z" fill="#293737"/>
<path d="M2.7575 74.072C3.9415 74.072 4.7895 73.448 4.7895 72.408C4.7895 71.616 4.3575 71.144 3.6855 70.968C4.2055 70.752 4.5895 70.368 4.5895 69.72C4.5895 68.928 3.9575 68.208 2.8695 68.208C1.7815 68.208 1.0375 68.952 0.9975 69.856H1.6055C1.6775 69.208 2.1575 68.776 2.8695 68.776C3.5655 68.776 3.9095 69.192 3.9095 69.736C3.9095 70.36 3.5815 70.712 2.8375 70.712H2.4375V71.296H2.8695C3.6775 71.296 4.0775 71.672 4.0775 72.408C4.0775 73.08 3.6695 73.512 2.7735 73.512C1.8695 73.512 1.4615 72.992 1.3975 72.312H0.7575C0.7975 73.312 1.5415 74.072 2.7575 74.072ZM8.01763 73.496C7.06563 73.496 6.45763 72.744 6.45763 71.296V70.976C6.45763 69.568 7.03363 68.768 8.00163 68.768C8.96963 68.768 9.52963 69.632 9.52963 70.96V71.28C9.52963 72.728 9.01763 73.496 8.01763 73.496ZM8.01763 74.072C9.42563 74.072 10.2336 72.952 10.2336 71.288V70.968C10.2336 69.336 9.40963 68.208 8.00163 68.208C6.60163 68.208 5.74563 69.296 5.74563 70.984V71.304C5.74563 72.968 6.64963 74.072 8.01763 74.072ZM11.4309 74H12.0709V69.184L14.0309 74H14.2469L16.1429 69.184V74H16.8389V68.28H15.8789L14.1669 72.736L12.3989 68.28H11.4309V74Z" fill="#293737"/>
<path d="M3.57834 7H4.25834V5.8H5.05034V5.232H4.25834V1.28H3.33034L0.714344 5.576V5.8H3.57834V7ZM1.59434 5.232L3.57834 1.808V5.232H1.59434ZM8.05278 6.496C7.10078 6.496 6.49278 5.744 6.49278 4.296V3.976C6.49278 2.568 7.06878 1.768 8.03678 1.768C9.00478 1.768 9.56478 2.632 9.56478 3.96V4.28C9.56478 5.728 9.05278 6.496 8.05278 6.496ZM8.05278 7.072C9.46078 7.072 10.2688 5.952 10.2688 4.288V3.968C10.2688 2.336 9.44478 1.208 8.03678 1.208C6.63678 1.208 5.78078 2.296 5.78078 3.984V4.304C5.78078 5.968 6.68478 7.072 8.05278 7.072ZM11.4661 7H12.1061V2.184L14.0661 7H14.2821L16.1781 2.184V7H16.8741V1.28H15.9141L14.2021 5.736L12.4341 1.28H11.4661V7Z" fill="#293737"/>
<line x1="21" y1="272.5" x2="591" y2="272.5" stroke="#B6B6B6"/>
<line x1="21" y1="205.5" x2="591" y2="205.5" stroke="#F5F5F5"/>
<line x1="21" y1="138.5" x2="591" y2="138.5" stroke="#F5F5F5"/>
<line x1="21" y1="71.5" x2="591" y2="71.5" stroke="#F5F5F5"/>
<line x1="21" y1="4.5" x2="591" y2="4.5" stroke="#F5F5F5"/>
</svg>
