<svg width="150" height="38" viewBox="0 0 150 38" fill="none" xmlns="http://www.w3.org/2000/svg">
<path d="M10.1478 30.5575C8.25451 30.5575 6.52536 30.117 4.96028 29.2359C3.42045 28.3549 2.20878 27.134 1.32527 25.5733C0.441755 23.9875 0 22.2002 0 20.2116C0 18.2482 0.416512 16.4861 1.24954 14.9254C2.1078 13.3396 3.30685 12.1061 4.84669 11.2251C6.38652 10.3189 8.15354 9.86579 10.1478 9.86579C12.1167 9.86579 13.7828 10.2937 15.1459 11.1496C16.5343 12.0054 17.5566 13.176 18.2129 14.6611L14.9566 16.4735C14.5022 15.517 13.8711 14.7618 13.0633 14.208C12.2556 13.6542 11.2837 13.3773 10.1478 13.3773C8.35549 13.3773 6.89138 14.0066 5.75544 15.2653C4.64474 16.4987 4.08939 18.1475 4.08939 20.2116C4.08939 22.2506 4.64474 23.8994 5.75544 25.158C6.89138 26.4166 8.35549 27.0459 10.1478 27.0459C11.3342 27.0459 12.306 26.7816 13.0633 26.253C13.8459 25.7244 14.4896 24.9818 14.9944 24.0252L18.2887 25.7244C17.4556 27.2599 16.3449 28.4556 14.9566 29.3114C13.5934 30.1421 11.9905 30.5575 10.1478 30.5575Z" fill="#293737"/>
<path d="M19.0974 10.2434H23.3762L29.4724 25.6489L35.6443 10.2434H39.8852L31.6307 30.1799H27.3519L19.0974 10.2434Z" fill="#293737"/>
<path d="M60.1538 10.2434V36.9764H56.0644V27.7633C54.7265 29.6261 52.5934 30.5575 49.6652 30.5575C47.7215 30.5575 46.0302 30.117 44.5914 29.2359C43.1525 28.3297 42.0418 27.0963 41.2593 25.5356C40.502 23.9497 40.1233 22.1877 40.1233 20.2494C40.1233 18.2859 40.502 16.5239 41.2593 14.9632C42.0418 13.3773 43.1525 12.1313 44.5914 11.2251C46.0302 10.3189 47.7215 9.86579 49.6652 9.86579C51.0284 9.86579 52.2274 10.0798 53.2624 10.5077C54.3226 10.9356 55.1556 11.5146 55.7615 12.2446L56.443 10.2434H60.1538ZM50.2711 27.0459C52.1391 27.0459 53.6158 26.4166 54.7012 25.158C55.7867 23.8994 56.3294 22.2506 56.3294 20.2116C56.3294 18.1727 55.7867 16.5239 54.7012 15.2653C53.6158 14.0066 52.1391 13.3773 50.2711 13.3773C48.4031 13.3773 46.9263 14.0066 45.8409 15.2653C44.7554 16.5239 44.2127 18.1727 44.2127 20.2116C44.2127 22.2506 44.7554 23.8994 45.8409 25.158C46.9263 26.4166 48.4031 27.0459 50.2711 27.0459Z" fill="#293737"/>
<path d="M81.902 10.2434V30.1799H78.1534L77.2825 27.9144C76.6515 28.6947 75.8437 29.3366 74.8592 29.8401C73.8747 30.3183 72.6883 30.5575 71.2999 30.5575C68.8766 30.5575 67.0843 29.9282 65.9231 28.6695C64.7872 27.4109 64.2192 25.523 64.2192 23.0058V10.2434H68.3086V22.817C68.3086 25.6614 69.596 27.0837 72.1708 27.0837C74.0388 27.0837 75.4398 26.4921 76.3738 25.309C77.333 24.1008 77.8126 22.3135 77.8126 19.9473V10.2434H81.902Z" fill="#293737"/>
<path d="M86.3041 10.2434H90.3935V30.1799H86.3041V10.2434ZM86.1526 2.91821H90.5828V7.37372H86.1526V2.91821Z" fill="#293737"/>
<path d="M102.384 30.5575C98.4715 30.5575 96.5152 28.5185 96.5152 24.4406V13.7549H93.0316V10.2434H96.5152V3.7489H100.605V10.2434H105.451V13.7549H100.605V24.214C100.605 25.1706 100.806 25.888 101.21 26.3663C101.614 26.8194 102.245 27.0459 103.104 27.0459C103.987 27.0459 104.77 26.9327 105.451 26.7061V30.2176C104.542 30.4442 103.52 30.5575 102.384 30.5575Z" fill="#293737"/>
<path d="M109.684 33.8425H111.88C113.092 33.8425 113.912 33.3642 114.341 32.4076L114.682 31.6902C114.909 31.1868 115.023 30.7211 115.023 30.2932C115.023 29.8149 114.897 29.2863 114.644 28.7073L107.147 10.2434H111.501L117.484 25.5733L123.504 10.2434H127.821L118.658 32.6342C117.396 35.7807 115.439 37.354 112.789 37.354H109.684V33.8425Z" fill="#293737"/>
<path fill-rule="evenodd" clip-rule="evenodd" d="M145.169 19.6353C145.147 19.3654 145.09 18.8668 145.028 18.3293C144.919 17.3711 144.796 16.2894 144.825 16.0999L144.848 15.9545L144.994 15.988C145.216 16.0392 145.992 16.5148 146.423 16.7795L146.651 16.918L147.068 17.1686C147.42 17.3817 147.774 17.5953 148.134 17.7911C148.454 17.5618 148.859 17.1574 149.217 16.7323C149.565 16.3198 149.866 15.8909 150 15.5879C149.68 15.3289 148.458 14.6268 147.613 14.1411C147.287 13.9539 147.017 13.7983 146.872 13.7106C146.188 13.296 145.452 13.1563 144.761 13.2351C144.276 13.2903 143.814 13.4541 143.407 13.7059C143 13.9582 142.65 14.2986 142.39 14.7076C142.017 15.295 141.83 16.026 141.927 16.8434C141.944 16.9844 141.972 17.2763 142.007 17.6311C142.097 18.5694 142.232 19.9625 142.336 20.3543C142.663 20.363 143.188 20.2759 143.72 20.1423C144.271 20.0039 144.824 19.8167 145.168 19.6349L145.169 19.6353Z" fill="#C0D271"/>
<path fill-rule="evenodd" clip-rule="evenodd" d="M140.879 17.1929C140.889 16.5684 140.844 15.9942 140.641 15.4769C140.44 14.9653 140.079 14.5026 139.456 14.0923C139.005 13.795 138.432 13.5933 137.827 13.5529C137.288 13.5169 136.724 13.6083 136.196 13.873C135.908 14.0178 135.345 14.3933 134.74 14.8192C133.97 15.3621 133.137 15.9847 132.716 16.3192C132.903 16.6671 133.258 17.0585 133.645 17.4232C134.039 17.7945 134.462 18.1357 134.777 18.3786L137.95 16.1402L137.957 16.3957C137.965 16.6561 137.947 17.1381 137.926 17.6733C137.893 18.5527 137.854 19.5788 137.913 19.9553L138.206 20.036C138.953 20.2441 139.999 20.5358 140.773 20.432L140.88 17.1929H140.879Z" fill="#99CC99"/>
<path fill-rule="evenodd" clip-rule="evenodd" d="M135.699 12.9676C136.157 12.6091 136.468 12.1538 136.651 11.6647C136.855 11.1198 136.9 10.5324 136.81 9.98971C136.527 8.2743 135.219 7.73201 133.759 7.12635C133.502 7.01993 133.241 6.91167 132.971 6.79062L132.805 6.71629C132.424 6.54385 131.816 6.26946 131.51 6.17969C131.333 6.46281 131.131 7.01607 130.977 7.57237C130.824 8.12664 130.721 8.67563 130.742 8.95286L134.299 10.4995L130.863 12.3697C130.97 12.8236 131.09 13.2918 131.255 13.7516C131.416 14.2031 131.622 14.6475 131.9 15.0636C132.211 14.8955 132.59 14.7033 132.993 14.499C133.983 13.9973 135.121 13.4205 135.699 12.9676H135.699Z" fill="#7CB8A6"/>
<path fill-rule="evenodd" clip-rule="evenodd" d="M136.954 7.21347C137.539 7.24657 138.166 7.10461 138.824 6.69637C140.573 5.61159 140.377 4.04343 140.179 2.46775C140.152 2.2551 140.126 2.04225 140.101 1.80522C140.09 1.6988 140.08 1.58953 140.07 1.46624C140.03 1.01393 139.973 0.369891 139.896 0.0682822C139.589 0.0512215 138.961 0.151961 138.351 0.312007C137.824 0.450726 137.318 0.632301 137.062 0.817125C137.074 1.15225 137.153 1.71627 137.234 2.29613C137.351 3.13941 137.474 4.01641 137.405 4.33772L137.366 4.52316L134.099 2.62414C133.786 2.85486 133.352 3.29479 132.975 3.74466C132.628 4.15818 132.332 4.57495 132.226 4.83533C132.583 5.09753 134.018 5.92559 134.831 6.39455L135.318 6.67646C135.817 6.97035 136.367 7.18016 136.954 7.21306L136.954 7.21347Z" fill="#54AB68"/>
<path fill-rule="evenodd" clip-rule="evenodd" d="M141.569 4.9174C141.76 5.44384 142.119 5.92723 142.775 6.35151C144.884 7.71495 146.712 6.28794 148.597 4.81625C148.899 4.58045 149.203 4.34342 149.506 4.11818C148.948 3.26373 148.238 2.69768 147.548 2.14686L147.455 2.07334L144.309 4.29448L144.283 4.06294C144.234 3.63358 144.265 2.87194 144.294 2.14361C144.323 1.42808 144.35 0.745444 144.301 0.477753C143.896 0.329894 143.32 0.181019 142.744 0.0896222C142.288 0.0175204 141.832 -0.0188352 141.461 0.00980245L141.358 3.18533C141.348 3.79972 141.375 4.38425 141.569 4.9176L141.569 4.9174Z" fill="#41747A"/>
</svg>
