<svg width="591" height="351" viewBox="0 0 591 351" fill="none" xmlns="http://www.w3.org/2000/svg">
<g opacity="0.24">
<rect width="14" height="152" transform="matrix(-1 0 0 1 582.808 188)" fill="#54AB68"/>
</g>
<g opacity="0.64">
<rect width="14" height="2" transform="matrix(-1 0 0 1 582.808 184)" fill="#54AB68"/>
</g>
<g opacity="0.24">
<rect width="14" height="166" transform="matrix(-1 0 0 1 564.814 174)" fill="#54AB68"/>
</g>
<g opacity="0.64">
<rect width="14" height="2" transform="matrix(-1 0 0 1 564.814 170)" fill="#54AB68"/>
</g>
<g opacity="0.24">
<rect width="14" height="180" transform="matrix(-1 0 0 1 546.821 160)" fill="#54AB68"/>
</g>
<g opacity="0.64">
<rect width="14" height="2" transform="matrix(-1 0 0 1 546.821 156)" fill="#54AB68"/>
</g>
<g opacity="0.24">
<rect width="14" height="172" transform="matrix(-1 0 0 1 528.827 168)" fill="#54AB68"/>
</g>
<g opacity="0.64">
<rect width="14" height="2" transform="matrix(-1 0 0 1 528.827 164)" fill="#54AB68"/>
</g>
<g opacity="0.24">
<rect width="14" height="186" transform="matrix(-1 0 0 1 510.833 154)" fill="#54AB68"/>
</g>
<g opacity="0.64">
<rect width="14" height="2" transform="matrix(-1 0 0 1 510.833 150)" fill="#54AB68"/>
</g>
<g opacity="0.24">
<rect width="14" height="164" transform="matrix(-1 0 0 1 492.839 176)" fill="#54AB68"/>
</g>
<g opacity="0.64">
<rect width="14" height="2" transform="matrix(-1 0 0 1 492.839 172)" fill="#54AB68"/>
</g>
<g opacity="0.24">
<rect width="14" height="166" transform="matrix(-1 0 0 1 474.845 174)" fill="#54AB68"/>
</g>
<g opacity="0.64">
<rect width="14" height="2" transform="matrix(-1 0 0 1 474.845 170)" fill="#54AB68"/>
</g>
<g opacity="0.24">
<rect width="14" height="170" transform="matrix(-1 0 0 1 456.851 170)" fill="#54AB68"/>
</g>
<g opacity="0.64">
<rect width="14" height="2" transform="matrix(-1 0 0 1 456.851 166)" fill="#54AB68"/>
</g>
<g opacity="0.24">
<rect width="14" height="180" transform="matrix(-1 0 0 1 438.858 160)" fill="#54AB68"/>
</g>
<g opacity="0.64">
<rect width="14" height="2" transform="matrix(-1 0 0 1 438.858 156)" fill="#54AB68"/>
</g>
<g opacity="0.24">
<rect width="14" height="168" transform="matrix(-1 0 0 1 420.864 172)" fill="#54AB68"/>
</g>
<g opacity="0.64">
<rect width="14" height="2" transform="matrix(-1 0 0 1 420.864 168)" fill="#54AB68"/>
</g>
<g opacity="0.24">
<rect width="14" height="182" transform="matrix(-1 0 0 1 402.87 158)" fill="#54AB68"/>
</g>
<g opacity="0.64">
<rect width="14" height="2" transform="matrix(-1 0 0 1 402.87 154)" fill="#54AB68"/>
</g>
<g opacity="0.24">
<rect width="14" height="176" transform="matrix(-1 0 0 1 384.876 164)" fill="#54AB68"/>
</g>
<g opacity="0.64">
<rect width="14" height="2" transform="matrix(-1 0 0 1 384.876 160)" fill="#54AB68"/>
</g>
<g opacity="0.24">
<rect width="14" height="184" transform="matrix(-1 0 0 1 366.883 156)" fill="#54AB68"/>
</g>
<g opacity="0.64">
<rect width="14" height="2" transform="matrix(-1 0 0 1 366.883 152)" fill="#54AB68"/>
</g>
<g opacity="0.24">
<rect width="14" height="188" transform="matrix(-1 0 0 1 348.889 152)" fill="#54AB68"/>
</g>
<g opacity="0.64">
<rect width="14" height="2" transform="matrix(-1 0 0 1 348.889 148)" fill="#54AB68"/>
</g>
<g opacity="0.24">
<rect width="14" height="197" transform="matrix(-1 0 0 1 330.895 143)" fill="#54AB68"/>
</g>
<g opacity="0.64">
<rect width="14" height="2" transform="matrix(-1 0 0 1 330.895 139)" fill="#54AB68"/>
</g>
<g opacity="0.24">
<rect width="14" height="194" transform="matrix(-1 0 0 1 312.901 146)" fill="#54AB68"/>
</g>
<g opacity="0.64">
<rect width="14" height="2" transform="matrix(-1 0 0 1 312.901 142)" fill="#54AB68"/>
</g>
<g opacity="0.24">
<rect width="14" height="192" transform="matrix(-1 0 0 1 294.907 148)" fill="#54AB68"/>
</g>
<g opacity="0.64">
<rect width="14" height="2" transform="matrix(-1 0 0 1 294.907 144)" fill="#54AB68"/>
</g>
<g opacity="0.24">
<rect width="14" height="196" transform="matrix(-1 0 0 1 276.913 144)" fill="#54AB68"/>
</g>
<g opacity="0.64">
<rect width="14" height="2" transform="matrix(-1 0 0 1 276.913 140)" fill="#54AB68"/>
</g>
<g opacity="0.24">
<rect width="14" height="186" transform="matrix(-1 0 0 1 258.92 154)" fill="#54AB68"/>
</g>
<g opacity="0.64">
<rect width="14" height="2" transform="matrix(-1 0 0 1 258.92 150)" fill="#54AB68"/>
</g>
<g opacity="0.24">
<rect width="14" height="208" transform="matrix(-1 0 0 1 240.926 132)" fill="#54AB68"/>
</g>
<g opacity="0.64">
<rect width="14" height="2" transform="matrix(-1 0 0 1 240.926 128)" fill="#54AB68"/>
</g>
<g opacity="0.24">
<rect width="14" height="192" transform="matrix(-1 0 0 1 222.932 148)" fill="#54AB68"/>
</g>
<g opacity="0.64">
<rect width="14" height="2" transform="matrix(-1 0 0 1 222.932 144)" fill="#54AB68"/>
</g>
<g opacity="0.24">
<rect width="14" height="201" transform="matrix(-1 0 0 1 204.938 139)" fill="#54AB68"/>
</g>
<g opacity="0.64">
<rect width="14" height="2" transform="matrix(-1 0 0 1 204.938 135)" fill="#54AB68"/>
</g>
<g opacity="0.24">
<rect width="14" height="210" transform="matrix(-1 0 0 1 186.944 130)" fill="#54AB68"/>
</g>
<g opacity="0.64">
<rect width="14" height="2" transform="matrix(-1 0 0 1 186.944 126)" fill="#54AB68"/>
</g>
<g opacity="0.24">
<rect width="14" height="204" transform="matrix(-1 0 0 1 168.951 136)" fill="#54AB68"/>
</g>
<g opacity="0.64">
<rect width="14" height="2" transform="matrix(-1 0 0 1 168.951 132)" fill="#54AB68"/>
</g>
<g opacity="0.24">
<rect width="14" height="199" transform="matrix(-1 0 0 1 150.957 141)" fill="#54AB68"/>
</g>
<g opacity="0.64">
<rect width="14" height="2" transform="matrix(-1 0 0 1 150.957 137)" fill="#54AB68"/>
</g>
<g opacity="0.24">
<rect width="14" height="217" transform="matrix(-1 0 0 1 132.963 123)" fill="#54AB68"/>
</g>
<g opacity="0.64">
<rect width="14" height="2" transform="matrix(-1 0 0 1 132.963 119)" fill="#54AB68"/>
</g>
<g opacity="0.24">
<rect width="14" height="212" transform="matrix(-1 0 0 1 114.969 128)" fill="#54AB68"/>
</g>
<g opacity="0.64">
<rect width="14" height="2" transform="matrix(-1 0 0 1 114.969 124)" fill="#54AB68"/>
</g>
<g opacity="0.24">
<rect width="14" height="204" transform="matrix(-1 0 0 1 96.9753 136)" fill="#54AB68"/>
</g>
<g opacity="0.64">
<rect width="14" height="2" transform="matrix(-1 0 0 1 96.9753 132)" fill="#54AB68"/>
</g>
<g opacity="0.24">
<rect width="14" height="208" transform="matrix(-1 0 0 1 78.9814 132)" fill="#54AB68"/>
</g>
<g opacity="0.64">
<rect width="14" height="2" transform="matrix(-1 0 0 1 78.9814 128)" fill="#54AB68"/>
</g>
<g opacity="0.24">
<rect width="14" height="217" transform="matrix(-1 0 0 1 60.9877 123)" fill="#54AB68"/>
</g>
<g opacity="0.64">
<rect width="14" height="2" transform="matrix(-1 0 0 1 60.9877 119)" fill="#54AB68"/>
</g>
<g opacity="0.24">
<rect width="14" height="227" transform="matrix(-1 0 0 1 42.9938 113)" fill="#54AB68"/>
</g>
<g opacity="0.64">
<rect width="14" height="2" transform="matrix(-1 0 0 1 42.9938 109)" fill="#54AB68"/>
</g>
<path d="M35.9463 349H36.6423V343.28H35.9943L34.6663 344.24V344.888L35.9463 343.968V349Z" fill="#293737"/>
<path d="M50.4372 349H54.2692V348.432H51.5092L53.0852 346.896C53.7892 346.208 54.2372 345.52 54.2372 344.816C54.2372 343.832 53.5652 343.208 52.5092 343.208C51.4212 343.208 50.7412 343.92 50.6532 345.04H51.3012C51.4132 344.144 51.8452 343.768 52.5092 343.768C53.1572 343.768 53.5332 344.152 53.5332 344.792C53.5332 345.376 53.2292 345.896 52.7092 346.448L50.4372 348.84V349Z" fill="#293737"/>
<path d="M72.4059 349.072C73.5899 349.072 74.4379 348.448 74.4379 347.408C74.4379 346.616 74.0059 346.144 73.3339 345.968C73.8539 345.752 74.2379 345.368 74.2379 344.72C74.2379 343.928 73.6059 343.208 72.5179 343.208C71.4299 343.208 70.6859 343.952 70.6459 344.856H71.2539C71.3259 344.208 71.8059 343.776 72.5179 343.776C73.2139 343.776 73.5579 344.192 73.5579 344.736C73.5579 345.36 73.2299 345.712 72.4859 345.712H72.0859V346.296H72.5179C73.3259 346.296 73.7259 346.672 73.7259 347.408C73.7259 348.08 73.3179 348.512 72.4219 348.512C71.5179 348.512 71.1099 347.992 71.0459 347.312H70.4059C70.4459 348.312 71.1899 349.072 72.4059 349.072Z" fill="#293737"/>
<path d="M91.2073 349H91.8873V347.8H92.6793V347.232H91.8873V343.28H90.9593L88.3433 347.576V347.8H91.2073V349ZM89.2233 347.232L91.2073 343.808V347.232H89.2233Z" fill="#293737"/>
<path d="M108.4 349.072C109.488 349.072 110.36 348.336 110.36 347.128C110.36 345.96 109.608 345.232 108.584 345.232C108.04 345.232 107.648 345.408 107.416 345.624V343.88H110.056V343.28H106.84V346.344H107.096C107.4 346 107.784 345.792 108.448 345.792C109.176 345.792 109.648 346.32 109.648 347.128C109.648 347.992 109.168 348.512 108.392 348.512C107.52 348.512 107.272 348.08 107.16 347.456H106.496C106.576 348.392 107.168 349.072 108.4 349.072Z" fill="#293737"/>
<path d="M126.559 349.072C127.767 349.072 128.535 348.304 128.535 347.16C128.535 346.112 127.799 345.288 126.663 345.288C125.999 345.288 125.463 345.6 125.191 346.064C125.223 344.552 125.831 343.776 126.695 343.776C127.335 343.776 127.623 344.064 127.751 344.592H128.415C128.263 343.672 127.631 343.208 126.743 343.208C125.431 343.208 124.503 344.28 124.503 346.336V346.472C124.503 347.904 124.999 349.072 126.559 349.072ZM126.559 348.528C125.791 348.528 125.239 348.032 125.239 347.096C125.239 346.352 125.783 345.832 126.551 345.832C127.327 345.832 127.823 346.368 127.823 347.192C127.823 348 127.311 348.528 126.559 348.528Z" fill="#293737"/>
<path d="M143.566 349H144.278L146.422 343.376V343.28H142.654V343.84H145.558L143.566 349Z" fill="#293737"/>
<path d="M162.502 349.072C163.47 349.072 164.47 348.504 164.47 347.36C164.47 346.624 164.038 346.128 163.374 345.888C163.902 345.656 164.254 345.256 164.254 344.68C164.254 343.784 163.39 343.208 162.502 343.208C161.622 343.208 160.742 343.768 160.742 344.696C160.742 345.256 161.062 345.688 161.606 345.896C160.998 346.112 160.526 346.608 160.526 347.376C160.526 348.512 161.566 349.072 162.502 349.072ZM162.502 348.504C161.838 348.504 161.238 348.104 161.238 347.352C161.238 346.592 161.838 346.2 162.518 346.2C163.198 346.2 163.758 346.584 163.758 347.336C163.758 348.096 163.206 348.504 162.502 348.504ZM162.526 345.648C161.942 345.648 161.446 345.304 161.446 344.704C161.446 344.112 161.91 343.752 162.502 343.752C163.094 343.752 163.55 344.136 163.55 344.688C163.55 345.296 163.134 345.648 162.526 345.648Z" fill="#293737"/>
<path d="M180.34 349.064C181.708 349.064 182.492 348.016 182.492 346.12V345.76C182.492 344.112 181.788 343.2 180.436 343.2C179.228 343.2 178.46 343.968 178.46 345.112C178.46 346.192 179.228 346.984 180.34 346.984C180.996 346.984 181.548 346.688 181.82 346.224C181.804 347.744 181.268 348.496 180.356 348.496C179.62 348.496 179.3 348.152 179.172 347.592H178.5C178.652 348.512 179.284 349.064 180.34 349.064ZM180.444 346.44C179.668 346.44 179.172 345.904 179.172 345.08C179.172 344.272 179.684 343.744 180.436 343.744C181.204 343.744 181.756 344.264 181.756 345.2C181.756 345.944 181.212 346.44 180.444 346.44Z" fill="#293737"/>
<path d="M195.724 349H196.42V343.28H195.772L194.444 344.24V344.888L195.724 343.968V349ZM200.127 348.496C199.175 348.496 198.567 347.744 198.567 346.296V345.976C198.567 344.568 199.143 343.768 200.111 343.768C201.079 343.768 201.639 344.632 201.639 345.96V346.28C201.639 347.728 201.127 348.496 200.127 348.496ZM200.127 349.072C201.535 349.072 202.343 347.952 202.343 346.288V345.968C202.343 344.336 201.519 343.208 200.111 343.208C198.711 343.208 197.855 344.296 197.855 345.984V346.304C197.855 347.968 198.759 349.072 200.127 349.072Z" fill="#293737"/>
<path d="M214.849 349H215.545V343.28H214.897L213.569 344.24V344.888L214.849 343.968V349ZM218.044 349H218.74V343.28H218.092L216.764 344.24V344.888L218.044 343.968V349Z" fill="#293737"/>
<path d="M231.732 349H232.428V343.28H231.78L230.451 344.24V344.888L231.732 343.968V349ZM233.535 349H237.367V348.432H234.607L236.183 346.896C236.887 346.208 237.335 345.52 237.335 344.816C237.335 343.832 236.663 343.208 235.607 343.208C234.519 343.208 233.839 343.92 233.751 345.04H234.399C234.511 344.144 234.943 343.768 235.607 343.768C236.255 343.768 236.631 344.152 236.631 344.792C236.631 345.376 236.327 345.896 235.807 346.448L233.535 348.84V349Z" fill="#293737"/>
<path d="M250.032 349H250.728V343.28H250.08L248.752 344.24V344.888L250.032 343.968V349ZM254.004 349.072C255.188 349.072 256.036 348.448 256.036 347.408C256.036 346.616 255.604 346.144 254.932 345.968C255.452 345.752 255.836 345.368 255.836 344.72C255.836 343.928 255.204 343.208 254.116 343.208C253.028 343.208 252.284 343.952 252.244 344.856H252.852C252.924 344.208 253.404 343.776 254.116 343.776C254.812 343.776 255.156 344.192 255.156 344.736C255.156 345.36 254.828 345.712 254.084 345.712H253.684V346.296H254.116C254.924 346.296 255.324 346.672 255.324 347.408C255.324 348.08 254.916 348.512 254.02 348.512C253.116 348.512 252.708 347.992 252.644 347.312H252.004C252.044 348.312 252.788 349.072 254.004 349.072Z" fill="#293737"/>
<path d="M267.556 349H268.252V343.28H267.604L266.276 344.24V344.888L267.556 343.968V349ZM272.227 349H272.907V347.8H273.699V347.232H272.907V343.28H271.979L269.363 347.576V347.8H272.227V349ZM270.243 347.232L272.227 343.808V347.232H270.243Z" fill="#293737"/>
<path d="M285.599 349H286.295V343.28H285.647L284.319 344.24V344.888L285.599 343.968V349ZM289.498 349.072C290.586 349.072 291.458 348.336 291.458 347.128C291.458 345.96 290.706 345.232 289.682 345.232C289.138 345.232 288.746 345.408 288.514 345.624V343.88H291.154V343.28H287.938V346.344H288.194C288.498 346 288.882 345.792 289.546 345.792C290.274 345.792 290.746 346.32 290.746 347.128C290.746 347.992 290.266 348.512 289.49 348.512C288.618 348.512 288.37 348.08 288.258 347.456H287.594C287.674 348.392 288.266 349.072 289.498 349.072Z" fill="#293737"/>
<path d="M303.97 349H304.666V343.28H304.018L302.69 344.24V344.888L303.97 343.968V349ZM308.157 349.072C309.365 349.072 310.133 348.304 310.133 347.16C310.133 346.112 309.397 345.288 308.261 345.288C307.597 345.288 307.061 345.6 306.789 346.064C306.821 344.552 307.429 343.776 308.293 343.776C308.933 343.776 309.221 344.064 309.349 344.592H310.013C309.861 343.672 309.229 343.208 308.341 343.208C307.029 343.208 306.101 344.28 306.101 346.336V346.472C306.101 347.904 306.597 349.072 308.157 349.072ZM308.157 348.528C307.389 348.528 306.837 348.032 306.837 347.096C306.837 346.352 307.381 345.832 308.149 345.832C308.925 345.832 309.421 346.368 309.421 347.192C309.421 348 308.909 348.528 308.157 348.528Z" fill="#293737"/>
<path d="M321.845 349H322.541V343.28H321.893L320.565 344.24V344.888L321.845 343.968V349ZM324.664 349H325.376L327.52 343.376V343.28H323.752V343.84H326.656L324.664 349Z" fill="#293737"/>
<path d="M340.017 349H340.713V343.28H340.065L338.737 344.24V344.888L340.017 343.968V349ZM344.1 349.072C345.068 349.072 346.068 348.504 346.068 347.36C346.068 346.624 345.636 346.128 344.972 345.888C345.5 345.656 345.852 345.256 345.852 344.68C345.852 343.784 344.988 343.208 344.1 343.208C343.22 343.208 342.34 343.768 342.34 344.696C342.34 345.256 342.66 345.688 343.204 345.896C342.596 346.112 342.124 346.608 342.124 347.376C342.124 348.512 343.164 349.072 344.1 349.072ZM344.1 348.504C343.436 348.504 342.836 348.104 342.836 347.352C342.836 346.592 343.436 346.2 344.116 346.2C344.796 346.2 345.356 346.584 345.356 347.336C345.356 348.096 344.804 348.504 344.1 348.504ZM344.124 345.648C343.54 345.648 343.044 345.304 343.044 344.704C343.044 344.112 343.508 343.752 344.1 343.752C344.692 343.752 345.148 344.136 345.148 344.688C345.148 345.296 344.732 345.648 344.124 345.648Z" fill="#293737"/>
<path d="M358.005 349H358.701V343.28H358.053L356.725 344.24V344.888L358.005 343.968V349ZM361.898 349.064C363.266 349.064 364.05 348.016 364.05 346.12V345.76C364.05 344.112 363.346 343.2 361.994 343.2C360.786 343.2 360.018 343.968 360.018 345.112C360.018 346.192 360.786 346.984 361.898 346.984C362.554 346.984 363.106 346.688 363.378 346.224C363.362 347.744 362.826 348.496 361.914 348.496C361.178 348.496 360.858 348.152 360.73 347.592H360.058C360.21 348.512 360.842 349.064 361.898 349.064ZM362.002 346.44C361.226 346.44 360.73 345.904 360.73 345.08C360.73 344.272 361.242 343.744 361.994 343.744C362.762 343.744 363.314 344.264 363.314 345.2C363.314 345.944 362.77 346.44 362.002 346.44Z" fill="#293737"/>
<path d="M373.234 349H377.066V348.432H374.306L375.882 346.896C376.586 346.208 377.034 345.52 377.034 344.816C377.034 343.832 376.362 343.208 375.306 343.208C374.218 343.208 373.538 343.92 373.45 345.04H374.098C374.21 344.144 374.642 343.768 375.306 343.768C375.954 343.768 376.33 344.152 376.33 344.792C376.33 345.376 376.026 345.896 375.506 346.448L373.234 348.84V349ZM380.225 348.496C379.273 348.496 378.665 347.744 378.665 346.296V345.976C378.665 344.568 379.241 343.768 380.209 343.768C381.177 343.768 381.737 344.632 381.737 345.96V346.28C381.737 347.728 381.225 348.496 380.225 348.496ZM380.225 349.072C381.633 349.072 382.441 347.952 382.441 346.288V345.968C382.441 344.336 381.617 343.208 380.209 343.208C378.809 343.208 377.953 344.296 377.953 345.984V346.304C377.953 347.968 378.857 349.072 380.225 349.072Z" fill="#293737"/>
<path d="M392.34 349H396.172V348.432H393.412L394.988 346.896C395.692 346.208 396.14 345.52 396.14 344.816C396.14 343.832 395.468 343.208 394.412 343.208C393.324 343.208 392.644 343.92 392.556 345.04H393.204C393.316 344.144 393.748 343.768 394.412 343.768C395.06 343.768 395.436 344.152 395.436 344.792C395.436 345.376 395.132 345.896 394.612 346.448L392.34 348.84V349ZM398.161 349H398.857V343.28H398.209L396.881 344.24V344.888L398.161 343.968V349Z" fill="#293737"/>
<path d="M410.222 349H414.054V348.432H411.294L412.87 346.896C413.574 346.208 414.022 345.52 414.022 344.816C414.022 343.832 413.35 343.208 412.294 343.208C411.206 343.208 410.526 343.92 410.438 345.04H411.086C411.198 344.144 411.63 343.768 412.294 343.768C412.942 343.768 413.318 344.152 413.318 344.792C413.318 345.376 413.014 345.896 412.494 346.448L410.222 348.84V349ZM414.652 349H418.484V348.432H415.724L417.3 346.896C418.004 346.208 418.452 345.52 418.452 344.816C418.452 343.832 417.78 343.208 416.724 343.208C415.636 343.208 414.956 343.92 414.868 345.04H415.516C415.628 344.144 416.06 343.768 416.724 343.768C417.372 343.768 417.748 344.152 417.748 344.792C417.748 345.376 417.444 345.896 416.924 346.448L414.652 348.84V349Z" fill="#293737"/>
<path d="M427.523 349H431.355V348.432H428.595L430.171 346.896C430.875 346.208 431.323 345.52 431.323 344.816C431.323 343.832 430.651 343.208 429.595 343.208C428.507 343.208 427.827 343.92 427.739 345.04H428.387C428.499 344.144 428.931 343.768 429.595 343.768C430.243 343.768 430.619 344.152 430.619 344.792C430.619 345.376 430.315 345.896 429.795 346.448L427.523 348.84V349ZM434.121 349.072C435.305 349.072 436.153 348.448 436.153 347.408C436.153 346.616 435.721 346.144 435.049 345.968C435.569 345.752 435.953 345.368 435.953 344.72C435.953 343.928 435.321 343.208 434.233 343.208C433.145 343.208 432.401 343.952 432.361 344.856H432.969C433.041 344.208 433.521 343.776 434.233 343.776C434.929 343.776 435.273 344.192 435.273 344.736C435.273 345.36 434.945 345.712 434.201 345.712H433.801V346.296H434.233C435.041 346.296 435.441 346.672 435.441 347.408C435.441 348.08 435.033 348.512 434.137 348.512C433.233 348.512 432.825 347.992 432.761 347.312H432.121C432.161 348.312 432.905 349.072 434.121 349.072Z" fill="#293737"/>
<path d="M445.609 349H449.441V348.432H446.681L448.257 346.896C448.961 346.208 449.409 345.52 449.409 344.816C449.409 343.832 448.737 343.208 447.681 343.208C446.593 343.208 445.913 343.92 445.825 345.04H446.473C446.585 344.144 447.017 343.768 447.681 343.768C448.329 343.768 448.705 344.152 448.705 344.792C448.705 345.376 448.401 345.896 447.881 346.448L445.609 348.84V349ZM452.781 349H453.461V347.8H454.253V347.232H453.461V343.28H452.533L449.917 347.576V347.8H452.781V349ZM450.797 347.232L452.781 343.808V347.232H450.797Z" fill="#293737"/>
<path d="M463.59 349H467.422V348.432H464.662L466.238 346.896C466.942 346.208 467.39 345.52 467.39 344.816C467.39 343.832 466.718 343.208 465.662 343.208C464.574 343.208 463.894 343.92 463.806 345.04H464.454C464.566 344.144 464.998 343.768 465.662 343.768C466.31 343.768 466.686 344.152 466.686 344.792C466.686 345.376 466.382 345.896 465.862 346.448L463.59 348.84V349ZM470.115 349.072C471.203 349.072 472.075 348.336 472.075 347.128C472.075 345.96 471.323 345.232 470.299 345.232C469.755 345.232 469.363 345.408 469.131 345.624V343.88H471.771V343.28H468.555V346.344H468.811C469.115 346 469.499 345.792 470.163 345.792C470.891 345.792 471.363 346.32 471.363 347.128C471.363 347.992 470.883 348.512 470.107 348.512C469.235 348.512 468.987 348.08 468.875 347.456H468.211C468.291 348.392 468.883 349.072 470.115 349.072Z" fill="#293737"/>
<path d="M481.5 349H485.332V348.432H482.572L484.148 346.896C484.852 346.208 485.3 345.52 485.3 344.816C485.3 343.832 484.628 343.208 483.572 343.208C482.484 343.208 481.804 343.92 481.716 345.04H482.364C482.476 344.144 482.908 343.768 483.572 343.768C484.22 343.768 484.596 344.152 484.596 344.792C484.596 345.376 484.292 345.896 483.772 346.448L481.5 348.84V349ZM488.235 349.072C489.443 349.072 490.211 348.304 490.211 347.16C490.211 346.112 489.475 345.288 488.339 345.288C487.675 345.288 487.139 345.6 486.867 346.064C486.899 344.552 487.507 343.776 488.371 343.776C489.011 343.776 489.299 344.064 489.427 344.592H490.091C489.939 343.672 489.307 343.208 488.419 343.208C487.107 343.208 486.179 344.28 486.179 346.336V346.472C486.179 347.904 486.675 349.072 488.235 349.072ZM488.235 348.528C487.467 348.528 486.915 348.032 486.915 347.096C486.915 346.352 487.459 345.832 488.227 345.832C489.003 345.832 489.499 346.368 489.499 347.192C489.499 348 488.987 348.528 488.235 348.528Z" fill="#293737"/>
<path d="M500.375 349H504.207V348.432H501.447L503.023 346.896C503.727 346.208 504.175 345.52 504.175 344.816C504.175 343.832 503.503 343.208 502.447 343.208C501.359 343.208 500.679 343.92 500.591 345.04H501.239C501.351 344.144 501.783 343.768 502.447 343.768C503.095 343.768 503.471 344.152 503.471 344.792C503.471 345.376 503.167 345.896 502.647 346.448L500.375 348.84V349ZM505.742 349H506.454L508.598 343.376V343.28H504.83V343.84H507.734L505.742 349Z" fill="#293737"/>
<path d="M517.547 349H521.379V348.432H518.619L520.195 346.896C520.899 346.208 521.347 345.52 521.347 344.816C521.347 343.832 520.675 343.208 519.619 343.208C518.531 343.208 517.851 343.92 517.763 345.04H518.411C518.523 344.144 518.955 343.768 519.619 343.768C520.267 343.768 520.643 344.152 520.643 344.792C520.643 345.376 520.339 345.896 519.819 346.448L517.547 348.84V349ZM524.178 349.072C525.146 349.072 526.146 348.504 526.146 347.36C526.146 346.624 525.714 346.128 525.05 345.888C525.578 345.656 525.93 345.256 525.93 344.68C525.93 343.784 525.066 343.208 524.178 343.208C523.298 343.208 522.418 343.768 522.418 344.696C522.418 345.256 522.738 345.688 523.282 345.896C522.674 346.112 522.202 346.608 522.202 347.376C522.202 348.512 523.242 349.072 524.178 349.072ZM524.178 348.504C523.514 348.504 522.914 348.104 522.914 347.352C522.914 346.592 523.514 346.2 524.194 346.2C524.874 346.2 525.434 346.584 525.434 347.336C525.434 348.096 524.882 348.504 524.178 348.504ZM524.202 345.648C523.618 345.648 523.122 345.304 523.122 344.704C523.122 344.112 523.586 343.752 524.178 343.752C524.77 343.752 525.226 344.136 525.226 344.688C525.226 345.296 524.81 345.648 524.202 345.648Z" fill="#293737"/>
<path d="M535.457 349H539.289V348.432H536.529L538.105 346.896C538.809 346.208 539.257 345.52 539.257 344.816C539.257 343.832 538.585 343.208 537.529 343.208C536.441 343.208 535.761 343.92 535.673 345.04H536.321C536.433 344.144 536.865 343.768 537.529 343.768C538.177 343.768 538.553 344.152 538.553 344.792C538.553 345.376 538.249 345.896 537.729 346.448L535.457 348.84V349ZM542.054 349.064C543.422 349.064 544.206 348.016 544.206 346.12V345.76C544.206 344.112 543.502 343.2 542.15 343.2C540.942 343.2 540.174 343.968 540.174 345.112C540.174 346.192 540.942 346.984 542.054 346.984C542.71 346.984 543.262 346.688 543.534 346.224C543.518 347.744 542.982 348.496 542.07 348.496C541.334 348.496 541.014 348.152 540.886 347.592H540.214C540.366 348.512 540.998 349.064 542.054 349.064ZM542.158 346.44C541.382 346.44 540.886 345.904 540.886 345.08C540.886 344.272 541.398 343.744 542.15 343.744C542.918 343.744 543.47 344.264 543.47 345.2C543.47 345.944 542.926 346.44 542.158 346.44Z" fill="#293737"/>
<path d="M555.683 349.072C556.867 349.072 557.715 348.448 557.715 347.408C557.715 346.616 557.283 346.144 556.611 345.968C557.131 345.752 557.515 345.368 557.515 344.72C557.515 343.928 556.883 343.208 555.795 343.208C554.707 343.208 553.963 343.952 553.923 344.856H554.531C554.603 344.208 555.083 343.776 555.795 343.776C556.491 343.776 556.835 344.192 556.835 344.736C556.835 345.36 556.507 345.712 555.763 345.712H555.363V346.296H555.795C556.603 346.296 557.003 346.672 557.003 347.408C557.003 348.08 556.595 348.512 555.699 348.512C554.795 348.512 554.387 347.992 554.323 347.312H553.683C553.723 348.312 554.467 349.072 555.683 349.072ZM560.943 348.496C559.991 348.496 559.383 347.744 559.383 346.296V345.976C559.383 344.568 559.959 343.768 560.927 343.768C561.895 343.768 562.455 344.632 562.455 345.96V346.28C562.455 347.728 561.943 348.496 560.943 348.496ZM560.943 349.072C562.351 349.072 563.159 347.952 563.159 346.288V345.968C563.159 344.336 562.335 343.208 560.927 343.208C559.527 343.208 558.671 344.296 558.671 345.984V346.304C558.671 347.968 559.575 349.072 560.943 349.072Z" fill="#293737"/>
<path d="M574.328 349.072C575.512 349.072 576.36 348.448 576.36 347.408C576.36 346.616 575.928 346.144 575.256 345.968C575.776 345.752 576.16 345.368 576.16 344.72C576.16 343.928 575.528 343.208 574.44 343.208C573.352 343.208 572.608 343.952 572.568 344.856H573.176C573.248 344.208 573.728 343.776 574.44 343.776C575.136 343.776 575.48 344.192 575.48 344.736C575.48 345.36 575.152 345.712 574.408 345.712H574.008V346.296H574.44C575.248 346.296 575.648 346.672 575.648 347.408C575.648 348.08 575.24 348.512 574.344 348.512C573.44 348.512 573.032 347.992 572.968 347.312H572.328C572.368 348.312 573.112 349.072 574.328 349.072ZM578.341 349H579.037V343.28H578.389L577.061 344.24V344.888L578.341 343.968V349Z" fill="#293737"/>
<path d="M2.79791 275H3.49391V269.28H2.84591L1.51791 270.24V270.888L2.79791 269.968V275ZM7.20122 274.496C6.24922 274.496 5.64122 273.744 5.64122 272.296V271.976C5.64122 270.568 6.21722 269.768 7.18522 269.768C8.15322 269.768 8.71322 270.632 8.71322 271.96V272.28C8.71322 273.728 8.20122 274.496 7.20122 274.496ZM7.20122 275.072C8.60922 275.072 9.41722 273.952 9.41722 272.288V271.968C9.41722 270.336 8.59322 269.208 7.18522 269.208C5.78522 269.208 4.92922 270.296 4.92922 271.984V272.304C4.92922 273.968 5.83322 275.072 7.20122 275.072ZM10.6145 275H11.2545V270.184L13.2145 275H13.4305L15.3265 270.184V275H16.0225V269.28H15.0625L13.3505 273.736L11.5825 269.28H10.6145V275Z" fill="#293737"/>
<path d="M1.30825 208H5.14025V207.432H2.38025L3.95625 205.896C4.66025 205.208 5.10825 204.52 5.10825 203.816C5.10825 202.832 4.43625 202.208 3.38025 202.208C2.29225 202.208 1.61225 202.92 1.52425 204.04H2.17225C2.28425 203.144 2.71625 202.768 3.38025 202.768C4.02825 202.768 4.40425 203.152 4.40425 203.792C4.40425 204.376 4.10025 204.896 3.58025 205.448L1.30825 207.84V208ZM8.29888 207.496C7.34688 207.496 6.73888 206.744 6.73888 205.296V204.976C6.73888 203.568 7.31488 202.768 8.28288 202.768C9.25088 202.768 9.81088 203.632 9.81088 204.96V205.28C9.81088 206.728 9.29888 207.496 8.29888 207.496ZM8.29888 208.072C9.70688 208.072 10.5149 206.952 10.5149 205.288V204.968C10.5149 203.336 9.69088 202.208 8.28288 202.208C6.88288 202.208 6.02688 203.296 6.02688 204.984V205.304C6.02688 206.968 6.93088 208.072 8.29888 208.072ZM11.7122 208H12.3522V203.184L14.3122 208H14.5282L16.4242 203.184V208H17.1202V202.28H16.1602L14.4482 206.736L12.6802 202.28H11.7122V208Z" fill="#293737"/>
<path d="M2.7575 141.072C3.9415 141.072 4.7895 140.448 4.7895 139.408C4.7895 138.616 4.3575 138.144 3.6855 137.968C4.2055 137.752 4.5895 137.368 4.5895 136.72C4.5895 135.928 3.9575 135.208 2.8695 135.208C1.7815 135.208 1.0375 135.952 0.9975 136.856H1.6055C1.6775 136.208 2.1575 135.776 2.8695 135.776C3.5655 135.776 3.9095 136.192 3.9095 136.736C3.9095 137.36 3.5815 137.712 2.8375 137.712H2.4375V138.296H2.8695C3.6775 138.296 4.0775 138.672 4.0775 139.408C4.0775 140.08 3.6695 140.512 2.7735 140.512C1.8695 140.512 1.4615 139.992 1.3975 139.312H0.7575C0.7975 140.312 1.5415 141.072 2.7575 141.072ZM8.01763 140.496C7.06563 140.496 6.45763 139.744 6.45763 138.296V137.976C6.45763 136.568 7.03363 135.768 8.00163 135.768C8.96963 135.768 9.52963 136.632 9.52963 137.96V138.28C9.52963 139.728 9.01763 140.496 8.01763 140.496ZM8.01763 141.072C9.42563 141.072 10.2336 139.952 10.2336 138.288V137.968C10.2336 136.336 9.40963 135.208 8.00163 135.208C6.60163 135.208 5.74563 136.296 5.74563 137.984V138.304C5.74563 139.968 6.64963 141.072 8.01763 141.072ZM11.4309 141H12.0709V136.184L14.0309 141H14.2469L16.1429 136.184V141H16.8389V135.28H15.8789L14.1669 139.736L12.3989 135.28H11.4309V141Z" fill="#293737"/>
<path d="M3.57834 74H4.25834V72.8H5.05034V72.232H4.25834V68.28H3.33034L0.714344 72.576V72.8H3.57834V74ZM1.59434 72.232L3.57834 68.808V72.232H1.59434ZM8.05278 73.496C7.10078 73.496 6.49278 72.744 6.49278 71.296V70.976C6.49278 69.568 7.06878 68.768 8.03678 68.768C9.00478 68.768 9.56478 69.632 9.56478 70.96V71.28C9.56478 72.728 9.05278 73.496 8.05278 73.496ZM8.05278 74.072C9.46078 74.072 10.2688 72.952 10.2688 71.288V70.968C10.2688 69.336 9.44478 68.208 8.03678 68.208C6.63678 68.208 5.78078 69.296 5.78078 70.984V71.304C5.78078 72.968 6.68478 74.072 8.05278 74.072ZM11.4661 74H12.1061V69.184L14.0661 74H14.2821L16.1781 69.184V74H16.8741V68.28H15.9141L14.2021 72.736L12.4341 68.28H11.4661V74Z" fill="#293737"/>
<path d="M3.27144 7.072C4.35944 7.072 5.23144 6.336 5.23144 5.128C5.23144 3.96 4.47944 3.232 3.45544 3.232C2.91144 3.232 2.51944 3.408 2.28744 3.624V1.88H4.92744V1.28H1.71144V4.344H1.96744C2.27144 4 2.65544 3.792 3.31944 3.792C4.04744 3.792 4.51944 4.32 4.51944 5.128C4.51944 5.992 4.03944 6.512 3.26344 6.512C2.39144 6.512 2.14344 6.08 2.03144 5.456H1.36744C1.44744 6.392 2.03944 7.072 3.27144 7.072ZM8.43169 6.496C7.47969 6.496 6.87169 5.744 6.87169 4.296V3.976C6.87169 2.568 7.44769 1.768 8.41569 1.768C9.38369 1.768 9.94369 2.632 9.94369 3.96V4.28C9.94369 5.728 9.43169 6.496 8.43169 6.496ZM8.43169 7.072C9.83969 7.072 10.6477 5.952 10.6477 4.288V3.968C10.6477 2.336 9.82369 1.208 8.41569 1.208C7.01569 1.208 6.15969 2.296 6.15969 3.984V4.304C6.15969 5.968 7.06369 7.072 8.43169 7.072ZM11.845 7H12.485V2.184L14.445 7H14.661L16.557 2.184V7H17.253V1.28H16.293L14.581 5.736L12.813 1.28H11.845V7Z" fill="#293737"/>
<line x1="21" y1="339.5" x2="591" y2="339.5" stroke="#B6B6B6"/>
<line x1="21" y1="272.5" x2="591" y2="272.5" stroke="#F5F5F5"/>
<line x1="21" y1="205.5" x2="591" y2="205.5" stroke="#F5F5F5"/>
<line x1="21" y1="138.5" x2="591" y2="138.5" stroke="#F5F5F5"/>
<line x1="21" y1="71.5" x2="591" y2="71.5" stroke="#F5F5F5"/>
<line x1="21" y1="4.5" x2="591" y2="4.5" stroke="#F5F5F5"/>
</svg>
