<svg width="455" height="192" viewBox="0 0 455 192" fill="none" xmlns="http://www.w3.org/2000/svg">
<g opacity="0.16">
<rect x="8" width="124" height="24" fill="#263238"/>
</g>
<path d="M19.21 15.09C20.63 15.09 21.68 14.18 21.68 12.98C21.68 11.63 20.84 11.15 19.25 10.9C17.79 10.68 17.53 10.32 17.53 9.62C17.53 8.95 18.04 8.46 19.02 8.46C20.01 8.46 20.53 8.83 20.7 9.73H21.48C21.34 8.46 20.45 7.76 19.02 7.76C17.67 7.76 16.72 8.6 16.72 9.7C16.72 10.97 17.61 11.44 19.11 11.67C20.47 11.89 20.84 12.23 20.84 13.04C20.84 13.85 20.13 14.39 19.21 14.39C17.77 14.39 17.43 13.67 17.32 12.82H16.48C16.61 14.04 17.3 15.09 19.21 15.09ZM24.8195 15.09C25.5895 15.09 26.0595 14.83 26.4495 14.34V15H27.2795V11.55C27.2795 10.09 26.3695 9.68 25.3695 9.68C24.3595 9.68 23.4095 10.12 23.2995 11.31H24.1295C24.2095 10.67 24.6095 10.37 25.3295 10.37C26.1295 10.37 26.4495 10.72 26.4495 11.55V11.93H25.6995C24.3595 11.93 23.0795 12.34 23.0795 13.55C23.0795 14.62 23.8495 15.09 24.8195 15.09ZM24.8995 14.43C24.1695 14.43 23.9095 14.09 23.9095 13.55C23.9095 12.78 24.6795 12.52 25.7295 12.52H26.4495V13.17C26.4495 13.98 25.7795 14.43 24.8995 14.43ZM29.3299 15H30.1699V7.27H29.3299V15ZM34.4085 15.09C35.5885 15.09 36.4585 14.54 36.6385 13.49H35.8085C35.6985 14.1 35.2285 14.4 34.4185 14.4C33.3485 14.4 32.7785 13.74 32.7385 12.55H36.6785V12.28C36.6785 10.41 35.5385 9.68 34.3285 9.68C32.8885 9.68 31.8785 10.78 31.8785 12.36V12.44C31.8785 14.05 32.9285 15.09 34.4085 15.09ZM32.7685 11.88C32.9085 10.95 33.4785 10.37 34.3285 10.37C35.1885 10.37 35.7485 10.8 35.8285 11.88H32.7685ZM40.0209 15.09C41.2909 15.09 41.9409 14.45 41.9409 13.5C41.9409 12.39 41.1809 12.15 40.1009 11.95C39.1409 11.78 38.8809 11.59 38.8809 11.12C38.8809 10.67 39.2709 10.37 39.8709 10.37C40.5309 10.37 40.8509 10.62 40.9709 11.19H41.7709C41.6309 10.06 40.8209 9.68 39.8809 9.68C39.0609 9.68 38.1109 10.18 38.1109 11.15C38.1109 12.06 38.5709 12.44 39.9309 12.69C40.7409 12.84 41.1509 13.02 41.1509 13.57C41.1509 14.13 40.8009 14.4 40.0109 14.4C39.1709 14.4 38.8409 14.01 38.7809 13.39H37.9709C38.0209 14.46 38.7709 15.09 40.0209 15.09ZM46.1721 15H46.9921L47.6821 12.94H50.6321L51.3321 15H52.1921L49.7721 7.85H48.6321L46.1721 15ZM49.1621 8.57L50.4021 12.25H47.9221L49.1621 8.57ZM55.7827 16.91C57.2427 16.91 58.2727 16.17 58.2827 14.65V9.77H57.4527V10.61C57.1527 10.1 56.6127 9.68 55.7427 9.68C54.3027 9.68 53.3027 10.86 53.3027 12.28V12.35C53.3027 13.79 54.3127 14.83 55.6827 14.83C56.4427 14.83 57.1527 14.35 57.4527 13.84V14.6C57.4527 15.72 56.8027 16.21 55.7727 16.21C54.8827 16.21 54.3827 15.9 54.2627 15.3H53.4127C53.5527 16.18 54.2327 16.91 55.7827 16.91ZM55.7727 14.14C54.8927 14.14 54.1627 13.46 54.1627 12.32V12.24C54.1627 11.14 54.7827 10.37 55.8227 10.37C56.8427 10.37 57.4827 11.05 57.4827 12.22V12.29C57.4827 13.46 56.7427 14.14 55.7727 14.14ZM62.5023 15.09C63.6823 15.09 64.5523 14.54 64.7323 13.49H63.9023C63.7923 14.1 63.3223 14.4 62.5123 14.4C61.4423 14.4 60.8723 13.74 60.8323 12.55H64.7723V12.28C64.7723 10.41 63.6323 9.68 62.4223 9.68C60.9823 9.68 59.9723 10.78 59.9723 12.36V12.44C59.9723 14.05 61.0223 15.09 62.5023 15.09ZM60.8623 11.88C61.0023 10.95 61.5723 10.37 62.4223 10.37C63.2823 10.37 63.8423 10.8 63.9223 11.88H60.8623ZM66.4459 15H67.2759V11.83C67.2759 10.89 67.9659 10.4 68.7359 10.4C69.5759 10.4 69.9659 10.81 69.9659 11.73V15H70.7959V11.79C70.7959 10.27 70.0359 9.68 68.9559 9.68C68.0959 9.68 67.5159 10.11 67.2759 10.6V9.77H66.4459V15ZM74.4124 15.07C74.7524 15.07 74.9524 15.02 75.1224 14.96V14.26C74.9424 14.33 74.7424 14.37 74.4824 14.37C74.0624 14.37 73.8324 14.12 73.8324 13.61V10.47H75.0524V9.77H73.8324V8.58H73.0024V9.77H72.2524V10.47H73.0024V13.69C73.0024 14.51 73.4624 15.07 74.4124 15.07ZM80.9136 15H81.7836V7.85H80.9736L79.3136 9.05V9.86L80.9136 8.71V15Z" fill="#263238"/>
<g opacity="0.16">
<rect x="8" y="48" width="366" height="24" fill="#263238"/>
</g>
<path d="M19.21 63.09C20.63 63.09 21.68 62.18 21.68 60.98C21.68 59.63 20.84 59.15 19.25 58.9C17.79 58.68 17.53 58.32 17.53 57.62C17.53 56.95 18.04 56.46 19.02 56.46C20.01 56.46 20.53 56.83 20.7 57.73H21.48C21.34 56.46 20.45 55.76 19.02 55.76C17.67 55.76 16.72 56.6 16.72 57.7C16.72 58.97 17.61 59.44 19.11 59.67C20.47 59.89 20.84 60.23 20.84 61.04C20.84 61.85 20.13 62.39 19.21 62.39C17.77 62.39 17.43 61.67 17.32 60.82H16.48C16.61 62.04 17.3 63.09 19.21 63.09ZM24.8195 63.09C25.5895 63.09 26.0595 62.83 26.4495 62.34V63H27.2795V59.55C27.2795 58.09 26.3695 57.68 25.3695 57.68C24.3595 57.68 23.4095 58.12 23.2995 59.31H24.1295C24.2095 58.67 24.6095 58.37 25.3295 58.37C26.1295 58.37 26.4495 58.72 26.4495 59.55V59.93H25.6995C24.3595 59.93 23.0795 60.34 23.0795 61.55C23.0795 62.62 23.8495 63.09 24.8195 63.09ZM24.8995 62.43C24.1695 62.43 23.9095 62.09 23.9095 61.55C23.9095 60.78 24.6795 60.52 25.7295 60.52H26.4495V61.17C26.4495 61.98 25.7795 62.43 24.8995 62.43ZM29.3299 63H30.1699V55.27H29.3299V63ZM34.4085 63.09C35.5885 63.09 36.4585 62.54 36.6385 61.49H35.8085C35.6985 62.1 35.2285 62.4 34.4185 62.4C33.3485 62.4 32.7785 61.74 32.7385 60.55H36.6785V60.28C36.6785 58.41 35.5385 57.68 34.3285 57.68C32.8885 57.68 31.8785 58.78 31.8785 60.36V60.44C31.8785 62.05 32.9285 63.09 34.4085 63.09ZM32.7685 59.88C32.9085 58.95 33.4785 58.37 34.3285 58.37C35.1885 58.37 35.7485 58.8 35.8285 59.88H32.7685ZM40.0209 63.09C41.2909 63.09 41.9409 62.45 41.9409 61.5C41.9409 60.39 41.1809 60.15 40.1009 59.95C39.1409 59.78 38.8809 59.59 38.8809 59.12C38.8809 58.67 39.2709 58.37 39.8709 58.37C40.5309 58.37 40.8509 58.62 40.9709 59.19H41.7709C41.6309 58.06 40.8209 57.68 39.8809 57.68C39.0609 57.68 38.1109 58.18 38.1109 59.15C38.1109 60.06 38.5709 60.44 39.9309 60.69C40.7409 60.84 41.1509 61.02 41.1509 61.57C41.1509 62.13 40.8009 62.4 40.0109 62.4C39.1709 62.4 38.8409 62.01 38.7809 61.39H37.9709C38.0209 62.46 38.7709 63.09 40.0209 63.09ZM46.1721 63H46.9921L47.6821 60.94H50.6321L51.3321 63H52.1921L49.7721 55.85H48.6321L46.1721 63ZM49.1621 56.57L50.4021 60.25H47.9221L49.1621 56.57ZM55.7827 64.91C57.2427 64.91 58.2727 64.17 58.2827 62.65V57.77H57.4527V58.61C57.1527 58.1 56.6127 57.68 55.7427 57.68C54.3027 57.68 53.3027 58.86 53.3027 60.28V60.35C53.3027 61.79 54.3127 62.83 55.6827 62.83C56.4427 62.83 57.1527 62.35 57.4527 61.84V62.6C57.4527 63.72 56.8027 64.21 55.7727 64.21C54.8827 64.21 54.3827 63.9 54.2627 63.3H53.4127C53.5527 64.18 54.2327 64.91 55.7827 64.91ZM55.7727 62.14C54.8927 62.14 54.1627 61.46 54.1627 60.32V60.24C54.1627 59.14 54.7827 58.37 55.8227 58.37C56.8427 58.37 57.4827 59.05 57.4827 60.22V60.29C57.4827 61.46 56.7427 62.14 55.7727 62.14ZM62.5023 63.09C63.6823 63.09 64.5523 62.54 64.7323 61.49H63.9023C63.7923 62.1 63.3223 62.4 62.5123 62.4C61.4423 62.4 60.8723 61.74 60.8323 60.55H64.7723V60.28C64.7723 58.41 63.6323 57.68 62.4223 57.68C60.9823 57.68 59.9723 58.78 59.9723 60.36V60.44C59.9723 62.05 61.0223 63.09 62.5023 63.09ZM60.8623 59.88C61.0023 58.95 61.5723 58.37 62.4223 58.37C63.2823 58.37 63.8423 58.8 63.9223 59.88H60.8623ZM66.4459 63H67.2759V59.83C67.2759 58.89 67.9659 58.4 68.7359 58.4C69.5759 58.4 69.9659 58.81 69.9659 59.73V63H70.7959V59.79C70.7959 58.27 70.0359 57.68 68.9559 57.68C68.0959 57.68 67.5159 58.11 67.2759 58.6V57.77H66.4459V63ZM74.4124 63.07C74.7524 63.07 74.9524 63.02 75.1224 62.96V62.26C74.9424 62.33 74.7424 62.37 74.4824 62.37C74.0624 62.37 73.8324 62.12 73.8324 61.61V58.47H75.0524V57.77H73.8324V56.58H73.0024V57.77H72.2524V58.47H73.0024V61.69C73.0024 62.51 73.4624 63.07 74.4124 63.07ZM81.8836 63.09C83.3636 63.09 84.4236 62.31 84.4236 61.01C84.4236 60.02 83.8836 59.43 83.0436 59.21C83.6936 58.94 84.1736 58.46 84.1736 57.65C84.1736 56.66 83.3836 55.76 82.0236 55.76C80.6636 55.76 79.7336 56.69 79.6836 57.82H80.4436C80.5336 57.01 81.1336 56.47 82.0236 56.47C82.8936 56.47 83.3236 56.99 83.3236 57.67C83.3236 58.45 82.9136 58.89 81.9836 58.89H81.4836V59.62H82.0236C83.0336 59.62 83.5336 60.09 83.5336 61.01C83.5336 61.85 83.0236 62.39 81.9036 62.39C80.7736 62.39 80.2636 61.74 80.1836 60.89H79.3836C79.4336 62.14 80.3636 63.09 81.8836 63.09Z" fill="#263238"/>
<g opacity="0.72">
<g opacity="0.16">
<rect x="8" y="24" width="319" height="24" fill="#263238"/>
</g>
<path d="M19.21 39.09C20.63 39.09 21.68 38.18 21.68 36.98C21.68 35.63 20.84 35.15 19.25 34.9C17.79 34.68 17.53 34.32 17.53 33.62C17.53 32.95 18.04 32.46 19.02 32.46C20.01 32.46 20.53 32.83 20.7 33.73H21.48C21.34 32.46 20.45 31.76 19.02 31.76C17.67 31.76 16.72 32.6 16.72 33.7C16.72 34.97 17.61 35.44 19.11 35.67C20.47 35.89 20.84 36.23 20.84 37.04C20.84 37.85 20.13 38.39 19.21 38.39C17.77 38.39 17.43 37.67 17.32 36.82H16.48C16.61 38.04 17.3 39.09 19.21 39.09ZM24.8195 39.09C25.5895 39.09 26.0595 38.83 26.4495 38.34V39H27.2795V35.55C27.2795 34.09 26.3695 33.68 25.3695 33.68C24.3595 33.68 23.4095 34.12 23.2995 35.31H24.1295C24.2095 34.67 24.6095 34.37 25.3295 34.37C26.1295 34.37 26.4495 34.72 26.4495 35.55V35.93H25.6995C24.3595 35.93 23.0795 36.34 23.0795 37.55C23.0795 38.62 23.8495 39.09 24.8195 39.09ZM24.8995 38.43C24.1695 38.43 23.9095 38.09 23.9095 37.55C23.9095 36.78 24.6795 36.52 25.7295 36.52H26.4495V37.17C26.4495 37.98 25.7795 38.43 24.8995 38.43ZM29.3299 39H30.1699V31.27H29.3299V39ZM34.4085 39.09C35.5885 39.09 36.4585 38.54 36.6385 37.49H35.8085C35.6985 38.1 35.2285 38.4 34.4185 38.4C33.3485 38.4 32.7785 37.74 32.7385 36.55H36.6785V36.28C36.6785 34.41 35.5385 33.68 34.3285 33.68C32.8885 33.68 31.8785 34.78 31.8785 36.36V36.44C31.8785 38.05 32.9285 39.09 34.4085 39.09ZM32.7685 35.88C32.9085 34.95 33.4785 34.37 34.3285 34.37C35.1885 34.37 35.7485 34.8 35.8285 35.88H32.7685ZM40.0209 39.09C41.2909 39.09 41.9409 38.45 41.9409 37.5C41.9409 36.39 41.1809 36.15 40.1009 35.95C39.1409 35.78 38.8809 35.59 38.8809 35.12C38.8809 34.67 39.2709 34.37 39.8709 34.37C40.5309 34.37 40.8509 34.62 40.9709 35.19H41.7709C41.6309 34.06 40.8209 33.68 39.8809 33.68C39.0609 33.68 38.1109 34.18 38.1109 35.15C38.1109 36.06 38.5709 36.44 39.9309 36.69C40.7409 36.84 41.1509 37.02 41.1509 37.57C41.1509 38.13 40.8009 38.4 40.0109 38.4C39.1709 38.4 38.8409 38.01 38.7809 37.39H37.9709C38.0209 38.46 38.7709 39.09 40.0209 39.09ZM46.1721 39H46.9921L47.6821 36.94H50.6321L51.3321 39H52.1921L49.7721 31.85H48.6321L46.1721 39ZM49.1621 32.57L50.4021 36.25H47.9221L49.1621 32.57ZM55.7827 40.91C57.2427 40.91 58.2727 40.17 58.2827 38.65V33.77H57.4527V34.61C57.1527 34.1 56.6127 33.68 55.7427 33.68C54.3027 33.68 53.3027 34.86 53.3027 36.28V36.35C53.3027 37.79 54.3127 38.83 55.6827 38.83C56.4427 38.83 57.1527 38.35 57.4527 37.84V38.6C57.4527 39.72 56.8027 40.21 55.7727 40.21C54.8827 40.21 54.3827 39.9 54.2627 39.3H53.4127C53.5527 40.18 54.2327 40.91 55.7827 40.91ZM55.7727 38.14C54.8927 38.14 54.1627 37.46 54.1627 36.32V36.24C54.1627 35.14 54.7827 34.37 55.8227 34.37C56.8427 34.37 57.4827 35.05 57.4827 36.22V36.29C57.4827 37.46 56.7427 38.14 55.7727 38.14ZM62.5023 39.09C63.6823 39.09 64.5523 38.54 64.7323 37.49H63.9023C63.7923 38.1 63.3223 38.4 62.5123 38.4C61.4423 38.4 60.8723 37.74 60.8323 36.55H64.7723V36.28C64.7723 34.41 63.6323 33.68 62.4223 33.68C60.9823 33.68 59.9723 34.78 59.9723 36.36V36.44C59.9723 38.05 61.0223 39.09 62.5023 39.09ZM60.8623 35.88C61.0023 34.95 61.5723 34.37 62.4223 34.37C63.2823 34.37 63.8423 34.8 63.9223 35.88H60.8623ZM66.4459 39H67.2759V35.83C67.2759 34.89 67.9659 34.4 68.7359 34.4C69.5759 34.4 69.9659 34.81 69.9659 35.73V39H70.7959V35.79C70.7959 34.27 70.0359 33.68 68.9559 33.68C68.0959 33.68 67.5159 34.11 67.2759 34.6V33.77H66.4459V39ZM74.4124 39.07C74.7524 39.07 74.9524 39.02 75.1224 38.96V38.26C74.9424 38.33 74.7424 38.37 74.4824 38.37C74.0624 38.37 73.8324 38.12 73.8324 37.61V34.47H75.0524V33.77H73.8324V32.58H73.0024V33.77H72.2524V34.47H73.0024V37.69C73.0024 38.51 73.4624 39.07 74.4124 39.07ZM79.1736 39H83.9636V38.29H80.5136L82.4836 36.37C83.3636 35.51 83.9236 34.65 83.9236 33.77C83.9236 32.54 83.0836 31.76 81.7636 31.76C80.4036 31.76 79.5536 32.65 79.4436 34.05H80.2536C80.3936 32.93 80.9336 32.46 81.7636 32.46C82.5736 32.46 83.0436 32.94 83.0436 33.74C83.0436 34.47 82.6636 35.12 82.0136 35.81L79.1736 38.8V39Z" fill="#263238"/>
</g>
<g opacity="0.72">
<g opacity="0.16">
<rect x="8" y="72" width="225" height="24" fill="#263238"/>
</g>
<path d="M19.21 87.09C20.63 87.09 21.68 86.18 21.68 84.98C21.68 83.63 20.84 83.15 19.25 82.9C17.79 82.68 17.53 82.32 17.53 81.62C17.53 80.95 18.04 80.46 19.02 80.46C20.01 80.46 20.53 80.83 20.7 81.73H21.48C21.34 80.46 20.45 79.76 19.02 79.76C17.67 79.76 16.72 80.6 16.72 81.7C16.72 82.97 17.61 83.44 19.11 83.67C20.47 83.89 20.84 84.23 20.84 85.04C20.84 85.85 20.13 86.39 19.21 86.39C17.77 86.39 17.43 85.67 17.32 84.82H16.48C16.61 86.04 17.3 87.09 19.21 87.09ZM24.8195 87.09C25.5895 87.09 26.0595 86.83 26.4495 86.34V87H27.2795V83.55C27.2795 82.09 26.3695 81.68 25.3695 81.68C24.3595 81.68 23.4095 82.12 23.2995 83.31H24.1295C24.2095 82.67 24.6095 82.37 25.3295 82.37C26.1295 82.37 26.4495 82.72 26.4495 83.55V83.93H25.6995C24.3595 83.93 23.0795 84.34 23.0795 85.55C23.0795 86.62 23.8495 87.09 24.8195 87.09ZM24.8995 86.43C24.1695 86.43 23.9095 86.09 23.9095 85.55C23.9095 84.78 24.6795 84.52 25.7295 84.52H26.4495V85.17C26.4495 85.98 25.7795 86.43 24.8995 86.43ZM29.3299 87H30.1699V79.27H29.3299V87ZM34.4085 87.09C35.5885 87.09 36.4585 86.54 36.6385 85.49H35.8085C35.6985 86.1 35.2285 86.4 34.4185 86.4C33.3485 86.4 32.7785 85.74 32.7385 84.55H36.6785V84.28C36.6785 82.41 35.5385 81.68 34.3285 81.68C32.8885 81.68 31.8785 82.78 31.8785 84.36V84.44C31.8785 86.05 32.9285 87.09 34.4085 87.09ZM32.7685 83.88C32.9085 82.95 33.4785 82.37 34.3285 82.37C35.1885 82.37 35.7485 82.8 35.8285 83.88H32.7685ZM40.0209 87.09C41.2909 87.09 41.9409 86.45 41.9409 85.5C41.9409 84.39 41.1809 84.15 40.1009 83.95C39.1409 83.78 38.8809 83.59 38.8809 83.12C38.8809 82.67 39.2709 82.37 39.8709 82.37C40.5309 82.37 40.8509 82.62 40.9709 83.19H41.7709C41.6309 82.06 40.8209 81.68 39.8809 81.68C39.0609 81.68 38.1109 82.18 38.1109 83.15C38.1109 84.06 38.5709 84.44 39.9309 84.69C40.7409 84.84 41.1509 85.02 41.1509 85.57C41.1509 86.13 40.8009 86.4 40.0109 86.4C39.1709 86.4 38.8409 86.01 38.7809 85.39H37.9709C38.0209 86.46 38.7709 87.09 40.0209 87.09ZM46.1721 87H46.9921L47.6821 84.94H50.6321L51.3321 87H52.1921L49.7721 79.85H48.6321L46.1721 87ZM49.1621 80.57L50.4021 84.25H47.9221L49.1621 80.57ZM55.7827 88.91C57.2427 88.91 58.2727 88.17 58.2827 86.65V81.77H57.4527V82.61C57.1527 82.1 56.6127 81.68 55.7427 81.68C54.3027 81.68 53.3027 82.86 53.3027 84.28V84.35C53.3027 85.79 54.3127 86.83 55.6827 86.83C56.4427 86.83 57.1527 86.35 57.4527 85.84V86.6C57.4527 87.72 56.8027 88.21 55.7727 88.21C54.8827 88.21 54.3827 87.9 54.2627 87.3H53.4127C53.5527 88.18 54.2327 88.91 55.7827 88.91ZM55.7727 86.14C54.8927 86.14 54.1627 85.46 54.1627 84.32V84.24C54.1627 83.14 54.7827 82.37 55.8227 82.37C56.8427 82.37 57.4827 83.05 57.4827 84.22V84.29C57.4827 85.46 56.7427 86.14 55.7727 86.14ZM62.5023 87.09C63.6823 87.09 64.5523 86.54 64.7323 85.49H63.9023C63.7923 86.1 63.3223 86.4 62.5123 86.4C61.4423 86.4 60.8723 85.74 60.8323 84.55H64.7723V84.28C64.7723 82.41 63.6323 81.68 62.4223 81.68C60.9823 81.68 59.9723 82.78 59.9723 84.36V84.44C59.9723 86.05 61.0223 87.09 62.5023 87.09ZM60.8623 83.88C61.0023 82.95 61.5723 82.37 62.4223 82.37C63.2823 82.37 63.8423 82.8 63.9223 83.88H60.8623ZM66.4459 87H67.2759V83.83C67.2759 82.89 67.9659 82.4 68.7359 82.4C69.5759 82.4 69.9659 82.81 69.9659 83.73V87H70.7959V83.79C70.7959 82.27 70.0359 81.68 68.9559 81.68C68.0959 81.68 67.5159 82.11 67.2759 82.6V81.77H66.4459V87ZM74.4124 87.07C74.7524 87.07 74.9524 87.02 75.1224 86.96V86.26C74.9424 86.33 74.7424 86.37 74.4824 86.37C74.0624 86.37 73.8324 86.12 73.8324 85.61V82.47H75.0524V81.77H73.8324V80.58H73.0024V81.77H72.2524V82.47H73.0024V85.69C73.0024 86.51 73.4624 87.07 74.4124 87.07ZM82.9536 87H83.8036V85.5H84.7936V84.79H83.8036V79.85H82.6436L79.3736 85.22V85.5H82.9536V87ZM80.4736 84.79L82.9536 80.51V84.79H80.4736Z" fill="#263238"/>
</g>
<g filter="url(#filter0_d)">
<rect x="8" y="96" width="439" height="24" fill="#54AB68"/>
<path d="M19.25 111.1C18.3167 111.1 17.6167 110.893 17.15 110.48C16.69 110.067 16.4333 109.5 16.38 108.78H17.66C17.7133 109.2 17.8533 109.527 18.08 109.76C18.3067 109.987 18.6967 110.1 19.25 110.1C19.65 110.1 19.9733 110 20.22 109.8C20.4733 109.593 20.6 109.327 20.6 109C20.6 108.667 20.4967 108.423 20.29 108.27C20.0833 108.117 19.69 107.993 19.11 107.9C18.2233 107.78 17.58 107.567 17.18 107.26C16.7867 106.947 16.59 106.463 16.59 105.81C16.59 105.217 16.82 104.727 17.28 104.34C17.74 103.953 18.34 103.76 19.08 103.76C19.8533 103.76 20.4633 103.937 20.91 104.29C21.3567 104.637 21.6133 105.15 21.68 105.83H20.46C20.3933 105.457 20.25 105.187 20.03 105.02C19.81 104.847 19.4933 104.76 19.08 104.76C18.6867 104.76 18.3833 104.847 18.17 105.02C17.9567 105.187 17.85 105.413 17.85 105.7C17.85 106.007 17.9467 106.237 18.14 106.39C18.34 106.543 18.7367 106.663 19.33 106.75C20.2167 106.87 20.8633 107.087 21.27 107.4C21.6767 107.707 21.88 108.203 21.88 108.89C21.88 109.523 21.6367 110.05 21.15 110.47C20.6633 110.89 20.03 111.1 19.25 111.1ZM24.8377 111.1C24.3243 111.1 23.9043 110.973 23.5777 110.72C23.251 110.46 23.0877 110.07 23.0877 109.55C23.0877 108.977 23.331 108.557 23.8177 108.29C24.3043 108.023 24.9543 107.89 25.7677 107.89H26.4177V107.62C26.4177 107.26 26.3443 106.997 26.1977 106.83C26.0577 106.657 25.8143 106.57 25.4677 106.57C24.861 106.57 24.5277 106.843 24.4677 107.39H23.2977C23.3443 106.81 23.571 106.377 23.9777 106.09C24.391 105.803 24.911 105.66 25.5377 105.66C26.931 105.66 27.6277 106.297 27.6277 107.57V111H26.4377V110.36C26.0643 110.853 25.531 111.1 24.8377 111.1ZM25.1277 110.23C25.5077 110.23 25.8177 110.137 26.0577 109.95C26.2977 109.757 26.4177 109.497 26.4177 109.17V108.65H25.7977C24.791 108.65 24.2877 108.933 24.2877 109.5C24.2877 109.987 24.5677 110.23 25.1277 110.23ZM29.4445 111V103.35H30.6545V111H29.4445ZM34.8294 111.1C34.0494 111.1 33.4127 110.86 32.9194 110.38C32.426 109.9 32.1794 109.253 32.1794 108.44V108.36C32.1794 107.56 32.4227 106.91 32.9094 106.41C33.4027 105.91 34.026 105.66 34.7794 105.66C35.486 105.66 36.0727 105.88 36.5394 106.32C37.0127 106.76 37.2494 107.42 37.2494 108.3V108.65H33.4194C33.4394 109.15 33.5727 109.533 33.8194 109.8C34.066 110.067 34.4127 110.2 34.8594 110.2C35.566 110.2 35.966 109.933 36.0594 109.4H37.2294C37.1427 109.947 36.8894 110.367 36.4694 110.66C36.0494 110.953 35.5027 111.1 34.8294 111.1ZM33.4394 107.84H36.0494C35.9894 106.973 35.566 106.54 34.7794 106.54C34.4194 106.54 34.1194 106.657 33.8794 106.89C33.646 107.117 33.4994 107.433 33.4394 107.84ZM40.569 111.1C39.8957 111.1 39.369 110.95 38.989 110.65C38.609 110.35 38.4057 109.923 38.379 109.37H39.519C39.5523 109.65 39.649 109.86 39.809 110C39.969 110.14 40.219 110.21 40.559 110.21C41.1857 110.21 41.499 109.987 41.499 109.54C41.499 109.333 41.4123 109.18 41.239 109.08C41.0723 108.973 40.7857 108.887 40.379 108.82C39.679 108.707 39.189 108.537 38.909 108.31C38.629 108.077 38.489 107.717 38.489 107.23C38.489 106.737 38.6823 106.353 39.069 106.08C39.4557 105.8 39.9157 105.66 40.449 105.66C41.7023 105.66 42.3857 106.187 42.499 107.24H41.379C41.3257 107 41.2257 106.823 41.079 106.71C40.939 106.597 40.729 106.54 40.449 106.54C40.189 106.54 39.9857 106.597 39.839 106.71C39.6923 106.823 39.619 106.973 39.619 107.16C39.619 107.347 39.6957 107.487 39.849 107.58C40.0023 107.673 40.2857 107.757 40.699 107.83C41.379 107.937 41.8757 108.1 42.189 108.32C42.5023 108.54 42.659 108.91 42.659 109.43C42.659 109.963 42.4757 110.377 42.109 110.67C41.749 110.957 41.2357 111.1 40.569 111.1ZM46.4532 111L48.8432 103.85H50.5832L52.9432 111H51.5632L50.9932 109.23H48.2632L47.7032 111H46.4532ZM49.6332 104.94L48.5732 108.26H50.6832L49.6332 104.94ZM56.5156 112.92C55.7356 112.92 55.139 112.763 54.7256 112.45C54.3123 112.137 54.069 111.713 53.9956 111.18H55.2156C55.3223 111.727 55.7523 112 56.5056 112C57.479 112 57.9656 111.53 57.9656 110.59V109.82C57.8123 110.087 57.579 110.317 57.2656 110.51C56.959 110.697 56.6223 110.79 56.2556 110.79C55.589 110.79 55.0356 110.56 54.5956 110.1C54.1556 109.64 53.9356 109.04 53.9356 108.3V108.23C53.9356 107.497 54.159 106.887 54.6056 106.4C55.0523 105.907 55.6123 105.66 56.2856 105.66C57.059 105.66 57.619 105.963 57.9656 106.57V105.77H59.1756V110.61C59.169 111.363 58.929 111.937 58.4556 112.33C57.989 112.723 57.3423 112.92 56.5156 112.92ZM56.5556 109.86C56.9823 109.86 57.329 109.717 57.5956 109.43C57.869 109.143 58.0056 108.753 58.0056 108.26V108.19C58.0056 107.697 57.879 107.31 57.6256 107.03C57.3723 106.75 57.029 106.61 56.5956 106.61C56.1556 106.61 55.809 106.757 55.5556 107.05C55.3023 107.343 55.1756 107.73 55.1756 108.21V108.29C55.1756 108.763 55.3056 109.143 55.5656 109.43C55.8256 109.717 56.1556 109.86 56.5556 109.86ZM63.3138 111.1C62.5338 111.1 61.8971 110.86 61.4038 110.38C60.9104 109.9 60.6638 109.253 60.6638 108.44V108.36C60.6638 107.56 60.9071 106.91 61.3938 106.41C61.8871 105.91 62.5104 105.66 63.2638 105.66C63.9704 105.66 64.5571 105.88 65.0238 106.32C65.4971 106.76 65.7338 107.42 65.7338 108.3V108.65H61.9038C61.9238 109.15 62.0571 109.533 62.3038 109.8C62.5504 110.067 62.8971 110.2 63.3438 110.2C64.0504 110.2 64.4504 109.933 64.5438 109.4H65.7138C65.6271 109.947 65.3738 110.367 64.9538 110.66C64.5338 110.953 63.9871 111.1 63.3138 111.1ZM61.9238 107.84H64.5338C64.4738 106.973 64.0504 106.54 63.2638 106.54C62.9038 106.54 62.6038 106.657 62.3638 106.89C62.1304 107.117 61.9838 107.433 61.9238 107.84ZM67.2145 111V105.77H68.4245V106.6C68.5579 106.327 68.7712 106.103 69.0645 105.93C69.3579 105.75 69.7079 105.66 70.1145 105.66C70.6679 105.66 71.1045 105.83 71.4245 106.17C71.7445 106.503 71.9045 107.017 71.9045 107.71V111H70.6945V107.82C70.6945 107.427 70.6112 107.137 70.4445 106.95C70.2779 106.763 70.0145 106.67 69.6545 106.67C69.2945 106.67 68.9979 106.78 68.7645 107C68.5379 107.213 68.4245 107.52 68.4245 107.92V111H67.2145ZM75.4785 111.09C74.9652 111.09 74.5718 110.957 74.2985 110.69C74.0318 110.423 73.8985 110.04 73.8985 109.54V106.68H73.1985V105.77H73.8985V104.62H75.1085V105.77H76.2585V106.68H75.1085V109.43C75.1085 109.877 75.3085 110.1 75.7085 110.1C75.9418 110.1 76.1385 110.067 76.2985 110V110.96C76.0652 111.047 75.7918 111.09 75.4785 111.09ZM82.7627 111.1C81.9561 111.1 81.3394 110.903 80.9127 110.51C80.4861 110.117 80.2527 109.597 80.2127 108.95H81.4527C81.5127 109.317 81.6361 109.597 81.8227 109.79C82.0161 109.977 82.3261 110.07 82.7527 110.07C83.1594 110.07 83.4761 109.94 83.7027 109.68C83.9294 109.42 84.0427 109.067 84.0427 108.62C84.0427 108.187 83.9261 107.843 83.6927 107.59C83.4594 107.337 83.1461 107.21 82.7527 107.21C82.1194 107.21 81.6227 107.417 81.2627 107.83H80.5827L80.6427 103.85H84.9827V104.9H81.6627L81.6527 106.84C81.9994 106.44 82.5127 106.24 83.1927 106.24C83.8461 106.24 84.3761 106.457 84.7827 106.89C85.1894 107.317 85.3927 107.9 85.3927 108.64C85.3927 109.387 85.1494 109.983 84.6627 110.43C84.1761 110.877 83.5427 111.1 82.7627 111.1Z" fill="white"/>
</g>
<g opacity="0.16">
<rect x="8" y="144" width="379" height="24" fill="#263238"/>
</g>
<path d="M19.21 159.09C20.63 159.09 21.68 158.18 21.68 156.98C21.68 155.63 20.84 155.15 19.25 154.9C17.79 154.68 17.53 154.32 17.53 153.62C17.53 152.95 18.04 152.46 19.02 152.46C20.01 152.46 20.53 152.83 20.7 153.73H21.48C21.34 152.46 20.45 151.76 19.02 151.76C17.67 151.76 16.72 152.6 16.72 153.7C16.72 154.97 17.61 155.44 19.11 155.67C20.47 155.89 20.84 156.23 20.84 157.04C20.84 157.85 20.13 158.39 19.21 158.39C17.77 158.39 17.43 157.67 17.32 156.82H16.48C16.61 158.04 17.3 159.09 19.21 159.09ZM24.8195 159.09C25.5895 159.09 26.0595 158.83 26.4495 158.34V159H27.2795V155.55C27.2795 154.09 26.3695 153.68 25.3695 153.68C24.3595 153.68 23.4095 154.12 23.2995 155.31H24.1295C24.2095 154.67 24.6095 154.37 25.3295 154.37C26.1295 154.37 26.4495 154.72 26.4495 155.55V155.93H25.6995C24.3595 155.93 23.0795 156.34 23.0795 157.55C23.0795 158.62 23.8495 159.09 24.8195 159.09ZM24.8995 158.43C24.1695 158.43 23.9095 158.09 23.9095 157.55C23.9095 156.78 24.6795 156.52 25.7295 156.52H26.4495V157.17C26.4495 157.98 25.7795 158.43 24.8995 158.43ZM29.3299 159H30.1699V151.27H29.3299V159ZM34.4085 159.09C35.5885 159.09 36.4585 158.54 36.6385 157.49H35.8085C35.6985 158.1 35.2285 158.4 34.4185 158.4C33.3485 158.4 32.7785 157.74 32.7385 156.55H36.6785V156.28C36.6785 154.41 35.5385 153.68 34.3285 153.68C32.8885 153.68 31.8785 154.78 31.8785 156.36V156.44C31.8785 158.05 32.9285 159.09 34.4085 159.09ZM32.7685 155.88C32.9085 154.95 33.4785 154.37 34.3285 154.37C35.1885 154.37 35.7485 154.8 35.8285 155.88H32.7685ZM40.0209 159.09C41.2909 159.09 41.9409 158.45 41.9409 157.5C41.9409 156.39 41.1809 156.15 40.1009 155.95C39.1409 155.78 38.8809 155.59 38.8809 155.12C38.8809 154.67 39.2709 154.37 39.8709 154.37C40.5309 154.37 40.8509 154.62 40.9709 155.19H41.7709C41.6309 154.06 40.8209 153.68 39.8809 153.68C39.0609 153.68 38.1109 154.18 38.1109 155.15C38.1109 156.06 38.5709 156.44 39.9309 156.69C40.7409 156.84 41.1509 157.02 41.1509 157.57C41.1509 158.13 40.8009 158.4 40.0109 158.4C39.1709 158.4 38.8409 158.01 38.7809 157.39H37.9709C38.0209 158.46 38.7709 159.09 40.0209 159.09ZM46.1721 159H46.9921L47.6821 156.94H50.6321L51.3321 159H52.1921L49.7721 151.85H48.6321L46.1721 159ZM49.1621 152.57L50.4021 156.25H47.9221L49.1621 152.57ZM55.7827 160.91C57.2427 160.91 58.2727 160.17 58.2827 158.65V153.77H57.4527V154.61C57.1527 154.1 56.6127 153.68 55.7427 153.68C54.3027 153.68 53.3027 154.86 53.3027 156.28V156.35C53.3027 157.79 54.3127 158.83 55.6827 158.83C56.4427 158.83 57.1527 158.35 57.4527 157.84V158.6C57.4527 159.72 56.8027 160.21 55.7727 160.21C54.8827 160.21 54.3827 159.9 54.2627 159.3H53.4127C53.5527 160.18 54.2327 160.91 55.7827 160.91ZM55.7727 158.14C54.8927 158.14 54.1627 157.46 54.1627 156.32V156.24C54.1627 155.14 54.7827 154.37 55.8227 154.37C56.8427 154.37 57.4827 155.05 57.4827 156.22V156.29C57.4827 157.46 56.7427 158.14 55.7727 158.14ZM62.5023 159.09C63.6823 159.09 64.5523 158.54 64.7323 157.49H63.9023C63.7923 158.1 63.3223 158.4 62.5123 158.4C61.4423 158.4 60.8723 157.74 60.8323 156.55H64.7723V156.28C64.7723 154.41 63.6323 153.68 62.4223 153.68C60.9823 153.68 59.9723 154.78 59.9723 156.36V156.44C59.9723 158.05 61.0223 159.09 62.5023 159.09ZM60.8623 155.88C61.0023 154.95 61.5723 154.37 62.4223 154.37C63.2823 154.37 63.8423 154.8 63.9223 155.88H60.8623ZM66.4459 159H67.2759V155.83C67.2759 154.89 67.9659 154.4 68.7359 154.4C69.5759 154.4 69.9659 154.81 69.9659 155.73V159H70.7959V155.79C70.7959 154.27 70.0359 153.68 68.9559 153.68C68.0959 153.68 67.5159 154.11 67.2759 154.6V153.77H66.4459V159ZM74.4124 159.07C74.7524 159.07 74.9524 159.02 75.1224 158.96V158.26C74.9424 158.33 74.7424 158.37 74.4824 158.37C74.0624 158.37 73.8324 158.12 73.8324 157.61V154.47H75.0524V153.77H73.8324V152.58H73.0024V153.77H72.2524V154.47H73.0024V157.69C73.0024 158.51 73.4624 159.07 74.4124 159.07ZM80.4436 159H81.3336L84.0136 151.97V151.85H79.3036V152.55H82.9336L80.4436 159Z" fill="#263238"/>
<g opacity="0.72">
<g opacity="0.16">
<rect x="8" y="120" width="312" height="24" fill="#263238"/>
</g>
<path d="M19.21 135.09C20.63 135.09 21.68 134.18 21.68 132.98C21.68 131.63 20.84 131.15 19.25 130.9C17.79 130.68 17.53 130.32 17.53 129.62C17.53 128.95 18.04 128.46 19.02 128.46C20.01 128.46 20.53 128.83 20.7 129.73H21.48C21.34 128.46 20.45 127.76 19.02 127.76C17.67 127.76 16.72 128.6 16.72 129.7C16.72 130.97 17.61 131.44 19.11 131.67C20.47 131.89 20.84 132.23 20.84 133.04C20.84 133.85 20.13 134.39 19.21 134.39C17.77 134.39 17.43 133.67 17.32 132.82H16.48C16.61 134.04 17.3 135.09 19.21 135.09ZM24.8195 135.09C25.5895 135.09 26.0595 134.83 26.4495 134.34V135H27.2795V131.55C27.2795 130.09 26.3695 129.68 25.3695 129.68C24.3595 129.68 23.4095 130.12 23.2995 131.31H24.1295C24.2095 130.67 24.6095 130.37 25.3295 130.37C26.1295 130.37 26.4495 130.72 26.4495 131.55V131.93H25.6995C24.3595 131.93 23.0795 132.34 23.0795 133.55C23.0795 134.62 23.8495 135.09 24.8195 135.09ZM24.8995 134.43C24.1695 134.43 23.9095 134.09 23.9095 133.55C23.9095 132.78 24.6795 132.52 25.7295 132.52H26.4495V133.17C26.4495 133.98 25.7795 134.43 24.8995 134.43ZM29.3299 135H30.1699V127.27H29.3299V135ZM34.4085 135.09C35.5885 135.09 36.4585 134.54 36.6385 133.49H35.8085C35.6985 134.1 35.2285 134.4 34.4185 134.4C33.3485 134.4 32.7785 133.74 32.7385 132.55H36.6785V132.28C36.6785 130.41 35.5385 129.68 34.3285 129.68C32.8885 129.68 31.8785 130.78 31.8785 132.36V132.44C31.8785 134.05 32.9285 135.09 34.4085 135.09ZM32.7685 131.88C32.9085 130.95 33.4785 130.37 34.3285 130.37C35.1885 130.37 35.7485 130.8 35.8285 131.88H32.7685ZM40.0209 135.09C41.2909 135.09 41.9409 134.45 41.9409 133.5C41.9409 132.39 41.1809 132.15 40.1009 131.95C39.1409 131.78 38.8809 131.59 38.8809 131.12C38.8809 130.67 39.2709 130.37 39.8709 130.37C40.5309 130.37 40.8509 130.62 40.9709 131.19H41.7709C41.6309 130.06 40.8209 129.68 39.8809 129.68C39.0609 129.68 38.1109 130.18 38.1109 131.15C38.1109 132.06 38.5709 132.44 39.9309 132.69C40.7409 132.84 41.1509 133.02 41.1509 133.57C41.1509 134.13 40.8009 134.4 40.0109 134.4C39.1709 134.4 38.8409 134.01 38.7809 133.39H37.9709C38.0209 134.46 38.7709 135.09 40.0209 135.09ZM46.1721 135H46.9921L47.6821 132.94H50.6321L51.3321 135H52.1921L49.7721 127.85H48.6321L46.1721 135ZM49.1621 128.57L50.4021 132.25H47.9221L49.1621 128.57ZM55.7827 136.91C57.2427 136.91 58.2727 136.17 58.2827 134.65V129.77H57.4527V130.61C57.1527 130.1 56.6127 129.68 55.7427 129.68C54.3027 129.68 53.3027 130.86 53.3027 132.28V132.35C53.3027 133.79 54.3127 134.83 55.6827 134.83C56.4427 134.83 57.1527 134.35 57.4527 133.84V134.6C57.4527 135.72 56.8027 136.21 55.7727 136.21C54.8827 136.21 54.3827 135.9 54.2627 135.3H53.4127C53.5527 136.18 54.2327 136.91 55.7827 136.91ZM55.7727 134.14C54.8927 134.14 54.1627 133.46 54.1627 132.32V132.24C54.1627 131.14 54.7827 130.37 55.8227 130.37C56.8427 130.37 57.4827 131.05 57.4827 132.22V132.29C57.4827 133.46 56.7427 134.14 55.7727 134.14ZM62.5023 135.09C63.6823 135.09 64.5523 134.54 64.7323 133.49H63.9023C63.7923 134.1 63.3223 134.4 62.5123 134.4C61.4423 134.4 60.8723 133.74 60.8323 132.55H64.7723V132.28C64.7723 130.41 63.6323 129.68 62.4223 129.68C60.9823 129.68 59.9723 130.78 59.9723 132.36V132.44C59.9723 134.05 61.0223 135.09 62.5023 135.09ZM60.8623 131.88C61.0023 130.95 61.5723 130.37 62.4223 130.37C63.2823 130.37 63.8423 130.8 63.9223 131.88H60.8623ZM66.4459 135H67.2759V131.83C67.2759 130.89 67.9659 130.4 68.7359 130.4C69.5759 130.4 69.9659 130.81 69.9659 131.73V135H70.7959V131.79C70.7959 130.27 70.0359 129.68 68.9559 129.68C68.0959 129.68 67.5159 130.11 67.2759 130.6V129.77H66.4459V135ZM74.4124 135.07C74.7524 135.07 74.9524 135.02 75.1224 134.96V134.26C74.9424 134.33 74.7424 134.37 74.4824 134.37C74.0624 134.37 73.8324 134.12 73.8324 133.61V130.47H75.0524V129.77H73.8324V128.58H73.0024V129.77H72.2524V130.47H73.0024V133.69C73.0024 134.51 73.4624 135.07 74.4124 135.07ZM82.1536 135.09C83.6636 135.09 84.6236 134.13 84.6236 132.7C84.6236 131.39 83.7036 130.36 82.2836 130.36C81.4536 130.36 80.7836 130.75 80.4436 131.33C80.4836 129.44 81.2436 128.47 82.3236 128.47C83.1236 128.47 83.4836 128.83 83.6436 129.49H84.4736C84.2836 128.34 83.4936 127.76 82.3836 127.76C80.7436 127.76 79.5836 129.1 79.5836 131.67V131.84C79.5836 133.63 80.2036 135.09 82.1536 135.09ZM82.1536 134.41C81.1936 134.41 80.5036 133.79 80.5036 132.62C80.5036 131.69 81.1836 131.04 82.1436 131.04C83.1136 131.04 83.7336 131.71 83.7336 132.74C83.7336 133.75 83.0936 134.41 82.1536 134.41Z" fill="#263238"/>
</g>
<g opacity="0.72">
<g opacity="0.16">
<rect x="8" y="168" width="286" height="24" fill="#263238"/>
</g>
<path d="M19.21 183.09C20.63 183.09 21.68 182.18 21.68 180.98C21.68 179.63 20.84 179.15 19.25 178.9C17.79 178.68 17.53 178.32 17.53 177.62C17.53 176.95 18.04 176.46 19.02 176.46C20.01 176.46 20.53 176.83 20.7 177.73H21.48C21.34 176.46 20.45 175.76 19.02 175.76C17.67 175.76 16.72 176.6 16.72 177.7C16.72 178.97 17.61 179.44 19.11 179.67C20.47 179.89 20.84 180.23 20.84 181.04C20.84 181.85 20.13 182.39 19.21 182.39C17.77 182.39 17.43 181.67 17.32 180.82H16.48C16.61 182.04 17.3 183.09 19.21 183.09ZM24.8195 183.09C25.5895 183.09 26.0595 182.83 26.4495 182.34V183H27.2795V179.55C27.2795 178.09 26.3695 177.68 25.3695 177.68C24.3595 177.68 23.4095 178.12 23.2995 179.31H24.1295C24.2095 178.67 24.6095 178.37 25.3295 178.37C26.1295 178.37 26.4495 178.72 26.4495 179.55V179.93H25.6995C24.3595 179.93 23.0795 180.34 23.0795 181.55C23.0795 182.62 23.8495 183.09 24.8195 183.09ZM24.8995 182.43C24.1695 182.43 23.9095 182.09 23.9095 181.55C23.9095 180.78 24.6795 180.52 25.7295 180.52H26.4495V181.17C26.4495 181.98 25.7795 182.43 24.8995 182.43ZM29.3299 183H30.1699V175.27H29.3299V183ZM34.4085 183.09C35.5885 183.09 36.4585 182.54 36.6385 181.49H35.8085C35.6985 182.1 35.2285 182.4 34.4185 182.4C33.3485 182.4 32.7785 181.74 32.7385 180.55H36.6785V180.28C36.6785 178.41 35.5385 177.68 34.3285 177.68C32.8885 177.68 31.8785 178.78 31.8785 180.36V180.44C31.8785 182.05 32.9285 183.09 34.4085 183.09ZM32.7685 179.88C32.9085 178.95 33.4785 178.37 34.3285 178.37C35.1885 178.37 35.7485 178.8 35.8285 179.88H32.7685ZM40.0209 183.09C41.2909 183.09 41.9409 182.45 41.9409 181.5C41.9409 180.39 41.1809 180.15 40.1009 179.95C39.1409 179.78 38.8809 179.59 38.8809 179.12C38.8809 178.67 39.2709 178.37 39.8709 178.37C40.5309 178.37 40.8509 178.62 40.9709 179.19H41.7709C41.6309 178.06 40.8209 177.68 39.8809 177.68C39.0609 177.68 38.1109 178.18 38.1109 179.15C38.1109 180.06 38.5709 180.44 39.9309 180.69C40.7409 180.84 41.1509 181.02 41.1509 181.57C41.1509 182.13 40.8009 182.4 40.0109 182.4C39.1709 182.4 38.8409 182.01 38.7809 181.39H37.9709C38.0209 182.46 38.7709 183.09 40.0209 183.09ZM46.1721 183H46.9921L47.6821 180.94H50.6321L51.3321 183H52.1921L49.7721 175.85H48.6321L46.1721 183ZM49.1621 176.57L50.4021 180.25H47.9221L49.1621 176.57ZM55.7827 184.91C57.2427 184.91 58.2727 184.17 58.2827 182.65V177.77H57.4527V178.61C57.1527 178.1 56.6127 177.68 55.7427 177.68C54.3027 177.68 53.3027 178.86 53.3027 180.28V180.35C53.3027 181.79 54.3127 182.83 55.6827 182.83C56.4427 182.83 57.1527 182.35 57.4527 181.84V182.6C57.4527 183.72 56.8027 184.21 55.7727 184.21C54.8827 184.21 54.3827 183.9 54.2627 183.3H53.4127C53.5527 184.18 54.2327 184.91 55.7827 184.91ZM55.7727 182.14C54.8927 182.14 54.1627 181.46 54.1627 180.32V180.24C54.1627 179.14 54.7827 178.37 55.8227 178.37C56.8427 178.37 57.4827 179.05 57.4827 180.22V180.29C57.4827 181.46 56.7427 182.14 55.7727 182.14ZM62.5023 183.09C63.6823 183.09 64.5523 182.54 64.7323 181.49H63.9023C63.7923 182.1 63.3223 182.4 62.5123 182.4C61.4423 182.4 60.8723 181.74 60.8323 180.55H64.7723V180.28C64.7723 178.41 63.6323 177.68 62.4223 177.68C60.9823 177.68 59.9723 178.78 59.9723 180.36V180.44C59.9723 182.05 61.0223 183.09 62.5023 183.09ZM60.8623 179.88C61.0023 178.95 61.5723 178.37 62.4223 178.37C63.2823 178.37 63.8423 178.8 63.9223 179.88H60.8623ZM66.4459 183H67.2759V179.83C67.2759 178.89 67.9659 178.4 68.7359 178.4C69.5759 178.4 69.9659 178.81 69.9659 179.73V183H70.7959V179.79C70.7959 178.27 70.0359 177.68 68.9559 177.68C68.0959 177.68 67.5159 178.11 67.2759 178.6V177.77H66.4459V183ZM74.4124 183.07C74.7524 183.07 74.9524 183.02 75.1224 182.96V182.26C74.9424 182.33 74.7424 182.37 74.4824 182.37C74.0624 182.37 73.8324 182.12 73.8324 181.61V178.47H75.0524V177.77H73.8324V176.58H73.0024V177.77H72.2524V178.47H73.0024V181.69C73.0024 182.51 73.4624 183.07 74.4124 183.07ZM82.0236 183.09C83.2336 183.09 84.4836 182.38 84.4836 180.95C84.4836 180.03 83.9436 179.41 83.1136 179.11C83.7736 178.82 84.2136 178.32 84.2136 177.6C84.2136 176.48 83.1336 175.76 82.0236 175.76C80.9236 175.76 79.8236 176.46 79.8236 177.62C79.8236 178.32 80.2236 178.86 80.9036 179.12C80.1436 179.39 79.5536 180.01 79.5536 180.97C79.5536 182.39 80.8536 183.09 82.0236 183.09ZM82.0236 182.38C81.1936 182.38 80.4436 181.88 80.4436 180.94C80.4436 179.99 81.1936 179.5 82.0436 179.5C82.8936 179.5 83.5936 179.98 83.5936 180.92C83.5936 181.87 82.9036 182.38 82.0236 182.38ZM82.0536 178.81C81.3236 178.81 80.7036 178.38 80.7036 177.63C80.7036 176.89 81.2836 176.44 82.0236 176.44C82.7636 176.44 83.3336 176.92 83.3336 177.61C83.3336 178.37 82.8136 178.81 82.0536 178.81Z" fill="#263238"/>
</g>
<defs>
<filter id="filter0_d" x="0" y="92" width="455" height="40" filterUnits="userSpaceOnUse" color-interpolation-filters="sRGB">
<feFlood flood-opacity="0" result="BackgroundImageFix"/>
<feColorMatrix in="SourceAlpha" type="matrix" values="0 0 0 0 0 0 0 0 0 0 0 0 0 0 0 0 0 0 127 0" result="hardAlpha"/>
<feOffset dy="4"/>
<feGaussianBlur stdDeviation="4"/>
<feColorMatrix type="matrix" values="0 0 0 0 0.113725 0 0 0 0 0.819608 0 0 0 0 0.631373 0 0 0 0.16 0"/>
<feBlend mode="multiply" in2="BackgroundImageFix" result="effect1_dropShadow"/>
<feBlend mode="normal" in="SourceGraphic" in2="effect1_dropShadow" result="shape"/>
</filter>
</defs>
</svg>
